<svg xmlns="http://www.w3.org/2000/svg" width="97.422" height="98.416" viewBox="0 0 97.422 98.416">
  <g id="Group_104565" data-name="Group 104565" transform="translate(-1058.646 -75.499)">
    <rect id="Rectangle_14390" data-name="Rectangle 14390" width="87.296" height="88.437" rx="43.648" transform="translate(1156.068 163.277) rotate(173)" fill="#9f97d9"/>
    <g id="giraffe" transform="translate(1079.672 90.462)">
      <path id="Path_245" data-name="Path 245" d="M219.044,16.516l-4.437.184v5.554a2.219,2.219,0,0,1-4.438,0V16.7l-4.437-.184L203,31.928l18.794.119Z" transform="translate(-182.434 -14.297)" fill="#ffdc64"/>
      <g id="Group_104538" data-name="Group 104538" transform="translate(4.535 7.056)">
        <path id="Path_246" data-name="Path 246" d="M347.2,65.435l1.109,2.219c11.633-2.684,13.883-11.144,14.318-14.315a.71.71,0,0,0-.994-.752C358.857,53.851,351.474,57.782,347.2,65.435Z" transform="translate(-311.798 -52.522)" fill="#ebaf4b"/>
        <path id="Path_247" data-name="Path 247" d="M99.1,65.435l-1.109,2.219C86.358,64.969,84.108,56.51,83.673,53.339a.71.71,0,0,1,.994-.752C87.444,53.851,94.827,57.782,99.1,65.435Z" transform="translate(-83.666 -52.522)" fill="#ebaf4b"/>
      </g>
      <path id="Path_248" data-name="Path 248" d="M285.081,206.452l-12.2,28.844v9.984A2.219,2.219,0,0,0,275.1,247.5h12.993a2.219,2.219,0,0,0,2.2-2.516Z" transform="translate(-242.925 -178.718)" fill="#e69641"/>
      <path id="Path_249" data-name="Path 249" d="M282.863,272.516h-1.536l-8.448,19.969v9.984a2.219,2.219,0,0,0,2.219,2.219h4.548Z" transform="translate(-242.926 -235.907)" fill="#d27d38"/>
      <path id="Path_250" data-name="Path 250" d="M223.965,363.4c.511,4.378,3.259,7.722,6.571,7.722s6.078-3.366,6.576-7.766Z" transform="translate(-200.583 -314.542)" fill="#e69641"/>
      <path id="Path_251" data-name="Path 251" d="M126.89,373.476a7.858,7.858,0,0,0-1.374,4.949.792.792,0,0,0,1.027.684,8.236,8.236,0,0,0,5.414-8.122.792.792,0,0,0-1.027-.684A7.858,7.858,0,0,0,126.89,373.476Z" transform="translate(-115.339 -320.525)" fill="#afd755"/>
      <g id="Group_104539" data-name="Group 104539" transform="translate(0.024 38.057)">
        <path id="Path_252" data-name="Path 252" d="M52.9,350.42a5.463,5.463,0,0,0-2.769,3.257.805.805,0,0,0,.516,1,5.5,5.5,0,0,0,7.019-3.55.805.805,0,0,0-.516-1A5.464,5.464,0,0,0,52.9,350.42Z" transform="translate(-50.09 -340.891)" fill="#bee86e"/>
        <path id="Path_253" data-name="Path 253" d="M113.514,288.866a7.859,7.859,0,0,0,2.7,4.368.792.792,0,0,0,1.2-.29,8.236,8.236,0,0,0-2.291-9.488.792.792,0,0,0-1.2.29A7.858,7.858,0,0,0,113.514,288.866Z" transform="translate(-104.783 -283.291)" fill="#bee86e"/>
      </g>
      <path id="Path_254" data-name="Path 254" d="M73.995,329.9c-4.747,0-15.016-.663-23.547-5.781a1.109,1.109,0,0,1,1.142-1.9c10.649,6.389,24.72,5.4,24.86,5.392a1.109,1.109,0,0,1,.17,2.212C76.474,329.831,75.518,329.9,73.995,329.9Z" transform="translate(-49.91 -278.793)" fill="#96be4b"/>
      <path id="Path_255" data-name="Path 255" d="M188.918,99.1a12.812,12.812,0,0,0-13.029,9.984l.826,5.547s2.981,13.059,4.16,17.646c1.305,5.079,6.194,5.651,8.043,5.651s6.738-.571,8.043-5.651c1.179-4.587,4.16-17.646,4.16-17.646l.826-5.547A12.812,12.812,0,0,0,188.918,99.1Z" transform="translate(-158.965 -85.784)" fill="#ffc850"/>
      <path id="Path_256" data-name="Path 256" d="M185.494,132.275c-.5-4.587-1.771-17.646-1.771-17.646l-.192-3.022a20.471,20.471,0,0,1,.606-6.7c.9-3.277,2.457-5.805,4.781-5.805h0a12.812,12.812,0,0,0-13.029,9.984l.826,5.547s2.981,13.059,4.16,17.646c1.305,5.079,6.194,5.651,8.043,5.651C188.131,137.926,186.05,137.355,185.494,132.275Z" transform="translate(-158.965 -85.785)" fill="#ebaf4b"/>
      <g id="Group_104540" data-name="Group 104540" transform="translate(24.406 22.188)">
        <path id="Path_257" data-name="Path 257" d="M233.806,317.136a1.106,1.106,0,0,1-.784-.325l-1.109-1.109a1.109,1.109,0,0,1,1.569-1.569l1.109,1.109a1.109,1.109,0,0,1-.784,1.894Z" transform="translate(-231.588 -293.839)" fill="#4b3f4e"/>
        <path id="Path_258" data-name="Path 258" d="M290.5,317.136a1.109,1.109,0,0,1-.784-1.894l1.109-1.109A1.109,1.109,0,1,1,292.4,315.7l-1.109,1.109A1.106,1.106,0,0,1,290.5,317.136Z" transform="translate(-281.629 -293.839)" fill="#4b3f4e"/>
        <path id="Path_259" data-name="Path 259" d="M342.271,172.928h0a3.328,3.328,0,0,1-3.328-3.328V168.49a3.328,3.328,0,0,1,3.328-3.328h0a3.328,3.328,0,0,1,3.328,3.328V169.6A3.328,3.328,0,0,1,342.271,172.928Z" transform="translate(-324.521 -165.162)" fill="#4b3f4e"/>
      </g>
      <path id="Path_260" data-name="Path 260" d="M363.717,165.161v3.883a1.664,1.664,0,1,0,3.328,0v-.555A3.328,3.328,0,0,0,363.717,165.161Z" transform="translate(-321.561 -142.974)" fill="#5d5360"/>
      <ellipse id="Ellipse_875" data-name="Ellipse 875" cx="1.109" cy="1.109" rx="1.109" ry="1.109" transform="translate(41.047 23.297)" fill="#fff"/>
      <path id="Path_261" data-name="Path 261" d="M160.594,172.928h0a3.328,3.328,0,0,1-3.328-3.328V168.49a3.328,3.328,0,0,1,3.328-3.328h0a3.328,3.328,0,0,1,3.328,3.328V169.6A3.328,3.328,0,0,1,160.594,172.928Z" transform="translate(-142.844 -142.974)" fill="#4b3f4e"/>
      <path id="Path_262" data-name="Path 262" d="M182.04,165.161v3.883a1.664,1.664,0,1,0,3.328,0v-.555A3.328,3.328,0,0,0,182.04,165.161Z" transform="translate(-164.29 -142.974)" fill="#5d5360"/>
      <ellipse id="Ellipse_876" data-name="Ellipse 876" cx="1.109" cy="1.109" rx="1.109" ry="1.109" transform="translate(16.641 23.297)" fill="#fff"/>
      <g id="Group_104541" data-name="Group 104541" transform="translate(23.297)">
        <path id="Path_263" data-name="Path 263" d="M225.549,4.437h0a2.219,2.219,0,0,1-2.219-2.219h0A2.219,2.219,0,0,1,225.549,0h0a2.219,2.219,0,0,1,2.219,2.219h0A2.219,2.219,0,0,1,225.549,4.437Z" transform="translate(-223.33)" fill="#d27d38"/>
        <path id="Path_264" data-name="Path 264" d="M291.614,4.437h0A2.219,2.219,0,0,1,289.4,2.219h0A2.219,2.219,0,0,1,291.614,0h0a2.219,2.219,0,0,1,2.219,2.219h0A2.219,2.219,0,0,1,291.614,4.437Z" transform="translate(-280.52)" fill="#d27d38"/>
      </g>
    </g>
  </g>
</svg>
