<svg xmlns="http://www.w3.org/2000/svg" width="97.423" height="98.416" viewBox="0 0 97.423 98.416">
  <g id="Group_104564" data-name="Group 104564" transform="translate(-937.273 -75.499)">
    <rect id="Rectangle_14389" data-name="Rectangle 14389" width="87.296" height="88.437" rx="43.648" transform="translate(1034.695 163.277) rotate(173)" fill="#b7dadb"/>
    <g id="turtle_1_" data-name="turtle (1)" transform="matrix(0.995, 0.105, -0.105, 0.995, 966.861, 89.429)">
      <path id="Path_210" data-name="Path 210" d="M44.082,29.056c-1.343-1.04-3.206-.477-4.652.01-1.386.467-2.751,1.012-4.086,1.608a16.9,16.9,0,0,0-1.866.911,9.69,9.69,0,0,0-1.077.84,5.542,5.542,0,0,0-1.121-.993h0c.162-.062.323-.126.482-.194A17.579,17.579,0,0,0,41.928,18.088,14.711,14.711,0,0,0,38.661,5.675,17.3,17.3,0,0,0,29.58.556,18.736,18.736,0,0,0,14.757,3,14.76,14.76,0,0,0,12.1,5.329a.492.492,0,0,0-.049.63A12.545,12.545,0,0,0,9.98,8.45a15.8,15.8,0,0,0-2.012,6.14,16.923,16.923,0,0,0,1.056,7.737,15.373,15.373,0,0,0,5.638,7.051l-.618.683a8.015,8.015,0,0,0-4.069.648A14.282,14.282,0,0,0,6.206,32.8,15.887,15.887,0,0,0,1.147,39.26a14.759,14.759,0,0,0,2.8,15.72,16.3,16.3,0,0,0,3.721,3.014,8.6,8.6,0,0,0,4.392,1.576A2.074,2.074,0,0,0,13,61.886a2.121,2.121,0,0,0,2.671-.822,6.216,6.216,0,0,0,.459,1.815,5.379,5.379,0,0,0,3.991,3.053c2.719.637,6.237.144,6.62-3.179a15.42,15.42,0,0,0,.055-2.93,10.133,10.133,0,0,0,3.672-2.294.939.939,0,0,0,.071.206,6.541,6.541,0,0,0,4.39,2.953,6.839,6.839,0,0,0,5.139-1.148,5.229,5.229,0,0,0,2.513-4c0-1.44-1.195-2.559-2.154-3.488a34.991,34.991,0,0,0-2.8-2.486,6.8,6.8,0,0,0-1.477-1.025,17.48,17.48,0,0,0-.021-9.3c.606.381,1.543.054,2.184-.107a12.267,12.267,0,0,0,2.865-1.106c1.811-.987,3.81-2.708,4.161-4.849a4.35,4.35,0,0,0-1.254-4.117Z" transform="translate(0 0)" fill="#86b57e"/>
      <path id="Path_211" data-name="Path 211" d="M30.774,5.675A17.3,17.3,0,0,0,21.693.556,18.735,18.735,0,0,0,6.87,3a14.759,14.759,0,0,0-2.652,2.33.492.492,0,0,0-.049.63A12.545,12.545,0,0,0,2.093,8.45,15.8,15.8,0,0,0,.081,14.59a16.923,16.923,0,0,0,1.056,7.737c3.406,8.739,14.322,12.461,22.734,8.909A17.579,17.579,0,0,0,34.041,18.088,14.711,14.711,0,0,0,30.774,5.675Z" transform="translate(7.887 0)" fill="#98cf90"/>
      <g id="Group_104537" data-name="Group 104537" transform="translate(14.345 1.583)">
        <path id="Path_212" data-name="Path 212" d="M26.215,8.511a11.063,11.063,0,0,0-4.357-5.243A17.054,17.054,0,0,0,14.992.222,28.936,28.936,0,0,0,7.021.353a19.25,19.25,0,0,0-3.674.833,18.1,18.1,0,0,0-1.829.758A2.865,2.865,0,0,0,.075,2.995a.55.55,0,0,0,.468.816,3.457,3.457,0,0,0,1.582-.425C2.677,3.178,3.237,3,3.8,2.834a20.177,20.177,0,0,1,3.22-.718A28.3,28.3,0,0,1,14.229,2a14.9,14.9,0,0,1,6.147,2.689,9.245,9.245,0,0,1,3.817,4.375C24.638,10.337,26.677,9.78,26.215,8.511Z" transform="translate(0 0)" fill="#a4e09c"/>
        <path id="Path_213" data-name="Path 213" d="M1.848.653A1.024,1.024,0,0,0,1.587.435L1.579.417A.85.85,0,0,0,1.073.028.864.864,0,0,0,.422.114a.857.857,0,0,0-.3,1.156l.136.207a.847.847,0,0,0,.714.41.863.863,0,0,0,.282-.052.661.661,0,0,0,.288-.013.705.705,0,0,0,.488-.488A.726.726,0,0,0,1.848.653Z" transform="translate(27.366 27.62)" fill="#a4e09c"/>
        <path id="Path_214" data-name="Path 214" d="M1.627.55A.715.715,0,0,0,1.418.323.72.72,0,0,0,1.177.088.707.707,0,0,0,.739.007a.666.666,0,0,0-.37.168A.747.747,0,0,0,0,.815q0,.162.007.324a.765.765,0,0,0,.216.521.748.748,0,0,0,.521.216.745.745,0,0,0,.521-.216l.023-.029a.686.686,0,0,0,.34-.321.754.754,0,0,0,0-.761Z" transform="translate(28.43 29.46)" fill="#a4e09c"/>
        <path id="Path_215" data-name="Path 215" d="M.007,0A.192.192,0,0,1,0,.033.089.089,0,0,0,.008,0Z" transform="translate(29.544 32.663)" fill="#a4e09c"/>
        <path id="Path_216" data-name="Path 216" d="M1.332,1.248l0,0,0-.009a.069.069,0,0,0,0-.012.045.045,0,0,1,0,.009c.056-.107.107-.209.155-.323A.612.612,0,0,0,1.461.472a.741.741,0,0,0-.12-.194A.5.5,0,0,0,1.2.105a.481.481,0,0,0-.61.009A.661.661,0,0,0,.372.256,1.481,1.481,0,0,0,0,1.175.653.653,0,0,0,.2,1.643a.681.681,0,0,0,.38.182A.634.634,0,0,0,1,1.747a.781.781,0,0,0,.3-.4c0-.013.018-.053.028-.085a.134.134,0,0,1-.009.018C1.325,1.272,1.33,1.26,1.332,1.248Z" transform="translate(28.213 31.43)" fill="#a4e09c"/>
        <path id="Path_217" data-name="Path 217" d="M2.366,2.279a.625.625,0,0,0-.61-.475.768.768,0,0,0,.56-.515A.716.716,0,0,0,1.824.423C1.548.337,1.3.2,1.025.109A3.307,3.307,0,0,0,.25,0,.249.249,0,0,0,0,.249a1.59,1.59,0,0,0,.4.932,3.05,3.05,0,0,0,1.048.6.506.506,0,0,0,.157.034.645.645,0,0,0-.341.173,1,1,0,0,0-.1.111.533.533,0,0,0-.137.059.681.681,0,0,0-.285.361.7.7,0,0,0-.073.336L.683,3.2a.766.766,0,0,0,.755.755.748.748,0,0,0,.709-.544.847.847,0,0,0,.229-.426A.4.4,0,0,0,2.4,2.89,1.591,1.591,0,0,0,2.366,2.279Z" transform="translate(16.119 34.496)" fill="#a4e09c"/>
        <path id="Path_218" data-name="Path 218" d="M1.629.281A.7.7,0,0,0,.717.1,1.266,1.266,0,0,0,.1,1.671a.448.448,0,0,0,.5.2,1.627,1.627,0,0,0,.474-.241A2.543,2.543,0,0,0,1.343,1.4l.077-.067L1.457,1.3q.06-.045.118-.093A.7.7,0,0,0,1.629.281Z" transform="translate(16.078 38.397)" fill="#a4e09c"/>
      </g>
      <ellipse id="Ellipse_873" data-name="Ellipse 873" cx="2.161" cy="1.274" rx="2.161" ry="1.274" transform="translate(13.013 18.371)" fill="#ebbace"/>
      <ellipse id="Ellipse_874" data-name="Ellipse 874" cx="2.161" cy="1.274" rx="2.161" ry="1.274" transform="translate(33.777 18.059)" fill="#ebbace"/>
      <path id="Path_219" data-name="Path 219" d="M16.179,7.463A7.672,7.672,0,0,0,14.256.206a.137.137,0,0,0-.1-.1A7.759,7.759,0,0,0,9.975.732,14.283,14.283,0,0,0,6.206,2.822,15.887,15.887,0,0,0,1.147,9.282,14.759,14.759,0,0,0,3.947,25a16.3,16.3,0,0,0,3.721,3.014c1.377.815,3.116,1.787,4.756,1.544a.4.4,0,0,0,.361-.344,5.348,5.348,0,0,0,1.194-2.252,11.712,11.712,0,0,0,.661-3.793,14.289,14.289,0,0,0-1.519-5.661,5.883,5.883,0,0,1,.068-5.458c.944-1.613,2.475-2.713,2.989-4.589Z" transform="translate(0 29.978)" fill="#bf8867"/>
      <path id="Path_220" data-name="Path 220" d="M8.059,8.857a6.489,6.489,0,0,0,.125-2.951A2.9,2.9,0,0,0,7.131,4.112c-.165-.266-.359-.586-.578-.967A15.168,15.168,0,0,0,5.387,1.232C5.026.758,4.636.05,3.988,0a.259.259,0,0,0-.257.257.877.877,0,0,0,.02.188L2.641,1.673l.238.127c.793,2.224,1.843,4.39,1.01,6.795C3.3,10.3,1.719,11.37.848,12.912A6.758,6.758,0,0,0,.3,18.182c.511,1.685,1.455,3.187,1.738,4.949a9.649,9.649,0,0,1-.287,4.074C1.45,28.28.742,29.28.661,30.391a.43.43,0,0,0,.287.414,2.009,2.009,0,0,0,.873,2.442c.846.452,2.611.022,2.721-1.048a8.547,8.547,0,0,0,1.186-1.875,12.516,12.516,0,0,0,1.053-2.806,12.321,12.321,0,0,0-.05-6.066c-.628-2.336-2.165-4.327-1.354-6.835.654-2.024,2.145-3.689,2.682-5.76Z" transform="translate(11.177 28.639)" fill="#d99a74"/>
      <path id="Path_221" data-name="Path 221" d="M0,.83A1.14,1.14,0,0,1,.725.106a1.815,1.815,0,0,1,1.954.6A7.017,7.017,0,0,1,1.01.9C.67.891.334.867,0,.83Z" transform="translate(35.497 58.617)" fill="#a4de9b"/>
      <path id="Path_222" data-name="Path 222" d="M.055,2.1A3.308,3.308,0,0,1,.155.456C.595-.34,1.4.039,1.869.58a.3.3,0,0,0,.164.1A7.89,7.89,0,0,1,.055,2.1Z" transform="translate(38.413 57.017)" fill="#a4de9b"/>
      <path id="Path_223" data-name="Path 223" d="M.69,3.144C.514,2.594,0,2.232,0,1.593A1.962,1.962,0,0,1,1.078,0a2.656,2.656,0,0,1,.079,2.271A5.193,5.193,0,0,1,.69,3.144Z" transform="translate(40.066 54.321)" fill="#a4de9b"/>
      <path id="Path_224" data-name="Path 224" d="M.271.349A3.186,3.186,0,0,1,0,0,2.3,2.3,0,0,1,1.743.479a1.671,1.671,0,0,1,.435.977A4.131,4.131,0,0,1,.271.349Z" transform="translate(17.883 62.89)" fill="#a4de9b"/>
      <path id="Path_225" data-name="Path 225" d="M.888.579C.6.568.3.544,0,.5A.681.681,0,0,1,.116.313.916.916,0,0,1,1.151.063a1.817,1.817,0,0,1,.677.475A5.647,5.647,0,0,1,.888.579Z" transform="translate(21.222 64.086)" fill="#a4de9b"/>
      <path id="Path_226" data-name="Path 226" d="M.372,1.683A2.8,2.8,0,0,0,0,1.3,1.183,1.183,0,0,1,.519.24,1.6,1.6,0,0,1,1.443,0,1.6,1.6,0,0,1,1.68.026,2.242,2.242,0,0,1,.372,1.683Z" transform="translate(23.656 62.677)" fill="#a4de9b"/>
      <path id="Path_227" data-name="Path 227" d="M7.441,2.746A17.949,17.949,0,0,1,8.895,5.72a18.723,18.723,0,0,1,1.277,6.232A16.685,16.685,0,0,1,5.853,23.444,16.374,16.374,0,0,1,3.2,25.827c-.648.462-1.328.867-1.981,1.314a12.866,12.866,0,0,0-.571-2.3C.612,24.218.436,22.993.3,21.3c0,0-.093-1.151-.161-2.923a48.067,48.067,0,0,1,.179-6A46.542,46.542,0,0,0,0,2.837c.034-.27.06-.541.107-.815a2.249,2.249,0,0,0,.106-1A17.357,17.357,0,0,0,5.549,0,.184.184,0,0,0,5.56.171C6.113,1.074,6.88,1.838,7.441,2.746Z" transform="translate(25.442 31.538)" fill="#d99a74"/>
      <path id="Path_228" data-name="Path 228" d="M.248,7.372a2.679,2.679,0,0,0,.878,1.017A15.457,15.457,0,0,0,6.951,9.534c2.287,0,4.609-.224,6.41-1.855a4.606,4.606,0,0,0,.986-5.111C13.662.952,12.2.364,10.557.166A21.148,21.148,0,0,0,6.776.033,7.367,7.367,0,0,0,3.794.745C1.241,2-.71,5.354.248,7.372Z" transform="translate(19.041 34.385)" fill="#86b57e"/>
      <path id="Path_229" data-name="Path 229" d="M1.688.711C1.6.628,1.5.524,1.4.422A.715.715,0,0,0,.744,0,.76.76,0,0,0,.007.663C-.079,1.3.624,1.536,1.1,1.727a.608.608,0,0,0,.687-.279A.619.619,0,0,0,1.688.711Z" transform="translate(30.405 35.842)" fill="#a4e09c"/>
      <path id="Path_230" data-name="Path 230" d="M2.482.228A.469.469,0,0,0,1.61.455c-.015.23-.048.46-.084.689a.57.57,0,0,0-.04.081.964.964,0,0,0-.043.139c-.007.016-.014.032-.021.05a.335.335,0,0,0,0,.191,1.517,1.517,0,0,0,.03.274.377.377,0,0,0,.212.266.59.59,0,0,0-.18.021,1.835,1.835,0,0,0-.363.151.688.688,0,0,0-.4.078.569.569,0,0,0-.248.145l0,0-.012.016a.6.6,0,0,0-.082.108,5.143,5.143,0,0,0-.288.478.687.687,0,0,0,.1.814.673.673,0,0,0,.814.105,2.775,2.775,0,0,0,.3-.254.83.83,0,0,0,.425-.31c-.048.069.027-.016.025-.026.046-.026.138-.069.07-.045a.669.669,0,0,0,.455-.8A.661.661,0,0,0,1.906,2.2a.492.492,0,0,0,.228-.057.462.462,0,0,0,.637-.325c.058-.365.091-.73.124-1.1A.469.469,0,0,0,2.482.228Z" transform="translate(30.107 37.787)" fill="#a4e09c"/>
      <path id="Path_231" data-name="Path 231" d="M7.535,1.722c-1.354-.182-2.737-.3-4.068-.615a9.911,9.911,0,0,1-1.7-.584A4.619,4.619,0,0,0,.289,0,.291.291,0,0,0,.011.367C.354,1.479,1.723,2.078,2.737,2.439a21.034,21.034,0,0,0,4.195.746.678.678,0,0,0,1.106-.358l.037-.155A.778.778,0,0,0,7.535,1.722Z" transform="translate(16.971 30.492)" fill="#7aa674"/>
      <path id="Path_232" data-name="Path 232" d="M6.32,10.581a26.779,26.779,0,0,1-.486-2.723,24.141,24.141,0,0,1-.227-2.626,12.28,12.28,0,0,0-.015-1.787.963.963,0,0,0,.092-1.68L5.635,1.74a.686.686,0,0,0-.114-.256C5.049.83,4.469.778,3.727.585,3.043.407,2.361.144,1.668.018A1.066,1.066,0,0,0,.616.428.835.835,0,0,0,.434.55L.271.7A.948.948,0,0,0,.687,2.271c.378.069.758.152,1.133.253A3.4,3.4,0,0,0,2.4,2.7c.2.066.392.139.583.22a3.792,3.792,0,0,0,1.279.4A6.385,6.385,0,0,0,4.071,5.1a19.582,19.582,0,0,0,.116,2.98,19.2,19.2,0,0,0,.578,2.793,3.438,3.438,0,0,0,1.288,2.147.278.278,0,0,0,.4-.165A4.237,4.237,0,0,0,6.32,10.581Z" transform="translate(18.785 41.053)" fill="#7aa674"/>
      <path id="Path_233" data-name="Path 233" d="M3.089.152a.216.216,0,0,0-.422.057A9.126,9.126,0,0,1,2.34,2.732,13.542,13.542,0,0,1,1.3,4.925,8.081,8.081,0,0,0,.01,9.463a24.277,24.277,0,0,0,1.046,4.9,12.1,12.1,0,0,1,.161,4.784.339.339,0,0,0,.574.238c1.028-1.2.956-2.873.781-4.344-.214-1.793-.852-3.515-1.019-5.309A10.031,10.031,0,0,1,2.707,4.816,6.81,6.81,0,0,0,3.089.152Z" transform="translate(16.116 35.654)" fill="#7aa674"/>
      <path id="Path_234" data-name="Path 234" d="M7.567.006a9.116,9.116,0,0,0-1.3.777,9.255,9.255,0,0,1-1.453.648A14.926,14.926,0,0,1,.895,2.02c-1.2.011-1.189,1.917,0,1.854A10.158,10.158,0,0,0,5.48,2.735c.847-.477,2.24-1.517,2.257-2.6A.136.136,0,0,0,7.567.006Z" transform="translate(34.936 34.947)" fill="#7aa674"/>
      <path id="Path_235" data-name="Path 235" d="M4.581.294a.3.3,0,0,0-.594-.08,22.774,22.774,0,0,1-1.435,4.1A12.994,12.994,0,0,1,1.471,5.927,15.881,15.881,0,0,0,.129,7.612.88.88,0,0,0,1.505,8.674,8.029,8.029,0,0,0,2.878,6.861,13.924,13.924,0,0,0,3.948,4.85,9.73,9.73,0,0,0,4.581.294Z" transform="translate(31.499 48.951)" fill="#7aa674"/>
      <path id="Path_236" data-name="Path 236" d="M8.982,3.746l-.023-.172c-.122-.93-1.412-1.552-1.953-.529a4.539,4.539,0,0,1-.349.555c.011-.086.023-.172.033-.258.1-.917.416-2.563-.391-3.247a.331.331,0,0,0-.391-.05c-.826.56-.863,2.038-1.08,2.924-.183.748-.385,1.494-.616,2.23-.063.012-.126.024-.191.033a5.028,5.028,0,0,1-2.05-.225C1.479,4.87.7,4.534.233,4.875A.465.465,0,0,0,.069,5.5,3.49,3.49,0,0,0,1.911,6.987,5.281,5.281,0,0,0,3.47,7.26,24.746,24.746,0,0,1,.643,12.428c-.646.9.635,2.167,1.534,1.534a1.51,1.51,0,0,0,.617-.7A22.555,22.555,0,0,0,5.939,6.929c.015-.051.03-.1.045-.154A6.012,6.012,0,0,0,8.544,4.562.792.792,0,0,0,8.982,3.746Z" transform="translate(26.588 41.987)" fill="#c98a65"/>
      <path id="Path_237" data-name="Path 237" d="M.76.015a.122.122,0,0,0-.182.1c0,1.311.591,2.55.5,3.892A7.41,7.41,0,0,1,.554,6.121,5.161,5.161,0,0,0,0,8.1a.375.375,0,0,0,.631.261A4.259,4.259,0,0,0,1.811,6.332a7.806,7.806,0,0,0,.477-2.45C2.309,2.621,1.982.684.76.015Z" transform="translate(16.564 32.162)" fill="#c98a65"/>
      <path id="Path_238" data-name="Path 238" d="M2.65,8.169C2.2,5.444.27,2.972.47.131A.135.135,0,0,0,.206.1a7.141,7.141,0,0,0,.019,3.48c.288,1.25.741,2.461,1.052,3.707a9.858,9.858,0,0,1,.192,3.907,9.753,9.753,0,0,1-.494,1.876,9.259,9.259,0,0,0-.727,1.777c-.051.357.322.814.7.539.93-.676,1.329-2.2,1.571-3.274A10.32,10.32,0,0,0,2.65,8.169Z" transform="translate(14.812 43.793)" fill="#c98a65"/>
      <path id="Path_239" data-name="Path 239" d="M11.931,8.838a14.97,14.97,0,0,0,1.928-2.866c.838-1.859,1.088-4.186-.2-5.9C13.55-.069,13.294.006,13.35.2c.638,2.248-.118,4.238-1.365,6.106-.593.888-1.353,1.667-1.884,2.6a6.718,6.718,0,0,0-.83,2.886,27.441,27.441,0,0,0,.835,6.555,9.014,9.014,0,0,1,.09,2.987,5.147,5.147,0,0,1-.341,1.2c-.042.1-.09.189-.14.28a16.934,16.934,0,0,1-6.2-5.564A13.1,13.1,0,0,1,1.675,12.3,10.32,10.32,0,0,1,1.6,9.77c.067-.7.408-1.65.068-2.307a.189.189,0,0,0-.212-.086C.718,7.646.449,8.671.289,9.363a11.3,11.3,0,0,0-.282,2.928,12.634,12.634,0,0,0,1.607,5.666,19.208,19.208,0,0,0,8.664,7.688c1.2.574,2.26-1.018,1.412-1.77a6.3,6.3,0,0,0,.5-1.535,9.246,9.246,0,0,0,.041-3.207c-.356-2.389-1.587-4.658-1.5-7.1A5.474,5.474,0,0,1,11.931,8.838Z" transform="translate(0.913 32.217)" fill="#b57a59"/>
      <path id="Path_240" data-name="Path 240" d="M44.082,29.056c-1.343-1.04-3.206-.477-4.652.01-1.386.467-2.751,1.012-4.086,1.608a16.9,16.9,0,0,0-1.866.911,9.69,9.69,0,0,0-1.077.84,5.542,5.542,0,0,0-1.121-.993h0c.162-.062.323-.126.482-.194A17.579,17.579,0,0,0,41.928,18.088,14.711,14.711,0,0,0,38.661,5.675,17.3,17.3,0,0,0,29.58.556,18.736,18.736,0,0,0,14.757,3,14.76,14.76,0,0,0,12.1,5.329a.492.492,0,0,0-.049.63A12.545,12.545,0,0,0,9.98,8.45a15.8,15.8,0,0,0-2.012,6.14,16.923,16.923,0,0,0,1.056,7.737,15.373,15.373,0,0,0,5.638,7.051l-.618.683a8.015,8.015,0,0,0-4.069.648A14.282,14.282,0,0,0,6.206,32.8,15.887,15.887,0,0,0,1.147,39.26a14.759,14.759,0,0,0,2.8,15.72,16.3,16.3,0,0,0,3.721,3.014,8.6,8.6,0,0,0,4.392,1.576A2.074,2.074,0,0,0,13,61.886a2.121,2.121,0,0,0,2.671-.822,6.216,6.216,0,0,0,.459,1.815,5.379,5.379,0,0,0,3.991,3.053c2.719.637,6.237.144,6.62-3.179a15.42,15.42,0,0,0,.055-2.93,10.133,10.133,0,0,0,3.672-2.294.939.939,0,0,0,.071.206,6.541,6.541,0,0,0,4.39,2.953,6.839,6.839,0,0,0,5.139-1.148,5.229,5.229,0,0,0,2.513-4c0-1.44-1.195-2.559-2.154-3.488a34.991,34.991,0,0,0-2.8-2.486,6.8,6.8,0,0,0-1.477-1.025,17.48,17.48,0,0,0-.021-9.3c.606.381,1.543.054,2.184-.107a12.267,12.267,0,0,0,2.865-1.106c1.811-.987,3.81-2.708,4.161-4.849a4.35,4.35,0,0,0-1.254-4.117ZM11.127,24.21a15.832,15.832,0,0,1-.584-15.3A18.446,18.446,0,0,1,12.23,6.125a.468.468,0,0,0,.594-.076,17.294,17.294,0,0,1,14.261-4.58A18.693,18.693,0,0,1,35.3,4.5a12.988,12.988,0,0,1,5.531,10.83,16.65,16.65,0,0,1-6.621,13C27.1,33.466,15.84,31.829,11.127,24.21ZM12,58.216c-.992-.562-2.172-.846-3.171-1.4A14.836,14.836,0,0,1,5.691,54.5a14.05,14.05,0,0,1-3.853-6.554A13.67,13.67,0,0,1,6.354,34.425,16.245,16.245,0,0,1,10,32.051a20.968,20.968,0,0,1,2.1-.9,14.531,14.531,0,0,0,1.948-.715l.008,0c.793,2.224,1.843,4.39,1.01,6.795-.592,1.708-2.17,2.776-3.04,4.318a6.758,6.758,0,0,0-.551,5.27c.511,1.685,1.455,3.187,1.738,4.949a9.649,9.649,0,0,1-.287,4.074C12.7,56.651,12.247,57.415,12,58.216Zm6.154,5.023a3.182,3.182,0,0,1-.271-.348,2.3,2.3,0,0,1,1.743.478,1.671,1.671,0,0,1,.435.977A4.131,4.131,0,0,1,18.154,63.24Zm3.956,1.425c-.286-.01-.586-.035-.888-.074a.68.68,0,0,1,.116-.191.916.916,0,0,1,1.035-.25,1.817,1.817,0,0,1,.677.475A5.642,5.642,0,0,1,22.11,64.664Zm1.918-.3a2.8,2.8,0,0,0-.368-.386,1.183,1.183,0,0,1,.515-1.058,1.6,1.6,0,0,1,.924-.239,1.626,1.626,0,0,1,.237.026A2.242,2.242,0,0,1,24.028,64.36ZM31.3,54.981a16.375,16.375,0,0,1-2.654,2.384c-.648.462-1.328.867-1.981,1.314a12.671,12.671,0,0,0-.674-2.58.21.21,0,0,0-.411.056c-.032,1.143-.077,2.282-.079,3.426,0,.758.015,1.536-.048,2.3a3.111,3.111,0,0,0-.734.032,2.163,2.163,0,0,0-1.29.658,1.87,1.87,0,0,0-.446.914,1.674,1.674,0,0,0-2.072.218,2.6,2.6,0,0,0-.709-1.015,2.049,2.049,0,0,0-2.561-.218,6.849,6.849,0,0,1-.407-3.29.592.592,0,0,0-.188-.49,12.481,12.481,0,0,0,.916-2.532,12.322,12.322,0,0,0-.05-6.066c-.628-2.336-2.165-4.327-1.354-6.835.654-2.024,2.145-3.689,2.682-5.76a6.489,6.489,0,0,0,.125-2.951c-.163-.763-.624-1.76-1.449-1.969a.116.116,0,0,0-.141.141,7.938,7.938,0,0,1,.785,2.217,6.539,6.539,0,0,1-.483,2.658c-.674,1.883-2.035,3.435-2.658,5.35-.709,2.18.041,4.019.849,6.041a11.236,11.236,0,0,1,.716,5.884,11.129,11.129,0,0,1-1.724,4.526,7.005,7.005,0,0,0-.887,1.389.47.47,0,0,0-.021.076.844.844,0,0,1-.974.126c-.663-.34-.54-1.12-.5-1.729a.2.2,0,0,0-.03-.118,5.557,5.557,0,0,0,1.136-2.195,11.712,11.712,0,0,0,.661-3.793,14.289,14.289,0,0,0-1.519-5.661,5.883,5.883,0,0,1,.068-5.458c.944-1.613,2.475-2.713,2.989-4.589a7.743,7.743,0,0,0-1.6-6.927l.84-.63c.191.2.4.394.559.572a9.71,9.71,0,0,0,1.467,1.548c.142.1.333-.066.288-.221a3.547,3.547,0,0,0-.427-.9,18.535,18.535,0,0,0,7.291,1.681,2.529,2.529,0,0,0-.2.853,2.877,2.877,0,0,0,.052,1.132,3.9,3.9,0,0,0-1.616.579c-.155.109-.165.4.058.444a12.955,12.955,0,0,0,2.8-.052,24.727,24.727,0,0,1,3.607.185c.278.032.568.071.854.13a1,1,0,0,0-.087.239,1.462,1.462,0,0,0,.216,1.049,1.871,1.871,0,0,0,.956.706c.068.026.143.056.22.082a1.417,1.417,0,0,0-.8,1.09,1.567,1.567,0,0,0,.107.729,3.255,3.255,0,0,0-1.059,2.385,9.969,9.969,0,0,1-2.849.469,17.111,17.111,0,0,1-6.3-1.246c-.893-.326-1.308,1.136-.395,1.432a24.376,24.376,0,0,0,4.17,1,.877.877,0,0,0-.135.207,3.224,3.224,0,0,0-.077.767c-.045.557-.081,1.116-.1,1.674-.037,1.07,0,2.145.071,3.213a31.1,31.1,0,0,0,.35,3.1,8.308,8.308,0,0,0,.943,2.959c.079.126.317.124.346-.045a11.7,11.7,0,0,0,.008-2.809c-.077-.972-.131-1.949-.161-2.923-.063-2.01.15-4,.179-6,0,0,0,0,0,0,.078,0,.156.008.234.011,2.168.073,4.745-.347,6.41-1.855a4.606,4.606,0,0,0,.986-5.111c-.686-1.617-2.146-2.2-3.791-2.4a21.141,21.141,0,0,0-3.781-.133l-.384.025c.038-.293.065-.586.116-.884a2.247,2.247,0,0,0,.106-1,17.356,17.356,0,0,0,5.336-1.023.184.184,0,0,0,.01.171c.554.9,1.32,1.668,1.881,2.576a17.942,17.942,0,0,1,1.454,2.973,18.723,18.723,0,0,1,1.277,6.232A16.684,16.684,0,0,1,31.3,54.981Zm.275-15.855c.039-.374.49-.7.8-.847a.177.177,0,0,0,.093-.14,3.82,3.82,0,0,1,.03,1.038,3.093,3.093,0,0,1-.214.846s-.006-.01-.01-.015C32.03,39.708,31.521,39.61,31.571,39.126Zm.324,1.56a3.905,3.905,0,0,1-1.38,1.1,2.1,2.1,0,0,1,.085-.532,3.817,3.817,0,0,1,.486-.959A.919.919,0,0,0,31.895,40.686Zm.472-2.744a1.127,1.127,0,0,0-.239-.086c.036-.02.072-.041.111-.059a.176.176,0,0,0,.1-.148,3.381,3.381,0,0,1,.094.357A.164.164,0,0,0,32.367,37.941Zm-.259-.72a.978.978,0,0,0-.412-.185,1.593,1.593,0,0,1-.707-.391.733.733,0,0,1-.182-.624,2.379,2.379,0,0,1,1.454,1.408A1.057,1.057,0,0,0,32.108,37.221Zm4.539,22.1c-.2,0-.389-.017-.581-.038a.656.656,0,0,1,.417-.417,1.045,1.045,0,0,1,1.125.348A4.039,4.039,0,0,1,36.646,59.324Zm2.115-.529a2.3,2.3,0,0,1,.07-1.14c.3-.553.866-.29,1.19.086a.21.21,0,0,0,.114.07A5.477,5.477,0,0,1,38.762,58.795Zm2.281-4.068a1.97,1.97,0,0,1,.058,1.684,3.849,3.849,0,0,1-.346.647c-.13-.407-.511-.676-.512-1.15a1.454,1.454,0,0,1,.8-1.181Zm-4.266-4.476c.855.783,1.7,1.568,2.5,2.4a16.4,16.4,0,0,1,1.43,1.527,1.8,1.8,0,0,0-1.469,1.51,2.14,2.14,0,0,0,0,.623,1.264,1.264,0,0,0-1.012.323,2.254,2.254,0,0,0-.671,1.594,1.819,1.819,0,0,0-1.5-.2,1.99,1.99,0,0,0-1.028,1.048A5.32,5.32,0,0,1,34.1,58.7a12.4,12.4,0,0,1-2.313-1.928.88.88,0,0,0-.343-.185l.2-.2a18.449,18.449,0,0,0,3.689-5.506q.3-.693.536-1.409c.312.313.7.593.911.783Zm5.385-15.782a2.157,2.157,0,0,0,.3.863,9.789,9.789,0,0,1-1.714,1.3,10.157,10.157,0,0,1-2.722,1.133c-.656.17-1.6.133-2.061.675a.627.627,0,0,0-.058.082c-.1-.309-.213-.616-.334-.92a16.509,16.509,0,0,0-1.847-3.427c-.254-.36-.519-.743-.8-1.116a4.4,4.4,0,0,0,.574-.152c.412-.152.814-.317,1.214-.5,1.034-.469,2.09-.877,3.157-1.263.935-.338,1.865-.7,2.824-.967.238-.066.488-.134.742-.186a1.32,1.32,0,0,0,.265,1.053,1.449,1.449,0,0,0,.675.445,1.414,1.414,0,0,0-.06.806,1.8,1.8,0,0,0,.471.816A1.41,1.41,0,0,0,42.162,34.469Zm.274-3.927a.642.642,0,0,1-.231-.429.624.624,0,0,1,0-.2,2.353,2.353,0,0,1,.379.029,1.4,1.4,0,0,1,1,.715,1.951,1.951,0,0,0-.33-.014A1.364,1.364,0,0,1,42.436,30.542Zm.63,4.126a.708.708,0,0,1-.1-.254,1.472,1.472,0,0,1,.195-.987,1.765,1.765,0,0,0,.516.227A4.553,4.553,0,0,1,43.066,34.668Zm.86-1.928c-.007.064-.016.127-.027.19a1.716,1.716,0,0,1-.775-.568.942.942,0,0,1-.082-.781,1.536,1.536,0,0,0,.8-.262A4.251,4.251,0,0,1,43.926,32.739Z" transform="translate(0 0)"/>
      <path id="Path_241" data-name="Path 241" d="M7.163,2.737a11.236,11.236,0,0,0-.98.657A6.017,6.017,0,0,0,5.994.066.137.137,0,0,0,5.748.1a5.16,5.16,0,0,0-.2,1.694c-.034.6-.1,1.192-.186,1.782q-.035.228-.076.455a5.277,5.277,0,0,1-1.278.638A9.479,9.479,0,0,1,.3,4.842c-.351-.024-.381.421-.16.591a4.864,4.864,0,0,0,4.3.405c.157-.05.318-.107.481-.171q-.188.681-.43,1.345a18.262,18.262,0,0,1-1.6,3.282c-.291.472-.608.925-.932,1.375a4.257,4.257,0,0,0-.889,1.523c-.062.3.213.707.565.565,1.069-.433,1.72-1.782,2.242-2.749a19.672,19.672,0,0,0,1.51-3.625,20.94,20.94,0,0,0,.542-2.212A3.217,3.217,0,0,0,7.58,3.057.288.288,0,0,0,7.163,2.737Z" transform="translate(27.074 42.195)"/>
      <path id="Path_242" data-name="Path 242" d="M3.776,4.331A3.833,3.833,0,0,0,6.4,2.91C6.924,2.252,7.676.865,6.877.149a.55.55,0,0,0-.752,0c-.483.389-.46,1.171-.812,1.673a2.605,2.605,0,0,1-1.628,1.1A2.96,2.96,0,0,1,.6.59C.513.244.045.35.014.669A3.485,3.485,0,0,0,3.776,4.331Z" transform="translate(22.052 16.859)"/>
      <path id="Path_243" data-name="Path 243" d="M1.8,0A1.931,1.931,0,0,0,.14,1.223,1.865,1.865,0,0,0,.414,3.116,1.867,1.867,0,0,0,1.742,3.7a2.026,2.026,0,0,0,1.952-1,1.912,1.912,0,0,0-.078-1.648A1.952,1.952,0,0,0,1.8,0Z" transform="translate(14.753 13.689)"/>
      <path id="Path_244" data-name="Path 244" d="M.866,3.573a2.017,2.017,0,0,0,1.956-.036A1.924,1.924,0,0,0,3.79,2.232,1.908,1.908,0,0,0,3.338.705,1.95,1.95,0,0,0,1.376.064a1.969,1.969,0,0,0-.509,3.51Z" transform="translate(32.317 13.631)"/>
    </g>
  </g>
</svg>
