<svg xmlns="http://www.w3.org/2000/svg" width="86" height="88" viewBox="0 0 86 88">
  <g id="Group_104562" data-name="Group 104562" transform="translate(-690 -83)">
    <g id="Rectangle_14387" data-name="Rectangle 14387" transform="translate(690 83)" fill="rgba(0,0,0,0.54)" stroke="#707070" stroke-width="1">
      <rect width="86" height="88" rx="43" stroke="none"/>
      <rect x="0.5" y="0.5" width="85" height="87" rx="42.5" fill="none"/>
    </g>
    <g id="_20-lion" data-name="20-lion" transform="translate(702.625 91.108)">
      <path id="Path_123" data-name="Path 123" d="M60.251,41c.813,0,3.251,3.327,3.251,5.419s-2.438,3.251-3.251,3.251S57,48.51,57,46.419,59.438,41,60.251,41Z" transform="translate(-0.645 2.352)" fill="#ffa426"/>
      <path id="Path_124" data-name="Path 124" d="M13.692,11.827a7.4,7.4,0,0,0,2.167,5.43L18.027,15.1l4.324-4.3c-1.94-2.07-5.722-3.143-7.673-1.16a3.576,3.576,0,0,0-.986,2.189Zm38.7,20.656a10.108,10.108,0,0,0,.293-2.222,7.4,7.4,0,0,0-.336-2.157A8.682,8.682,0,0,0,50.4,24.723a6.551,6.551,0,0,1-1.658-3.392l-.39-2.991c-.054-.368-1.084-1.084-1.084-1.084a9.754,9.754,0,0,1-7.586-3.251V18.34c-5.115,0-8.67-6.5-8.67-6.5v4.335c-2.829,0-3.251-2.9-3.251-6.5-3.251,1.084-6.925,5.115-7.445,8.67l-.531,2.991a6.551,6.551,0,0,1-1.658,3.392A8.682,8.682,0,0,0,16.173,28.1a7.4,7.4,0,0,0-.336,2.157,10.108,10.108,0,0,0,.293,2.222c1.506,5.885,9.038,8.616,18.131,8.616s16.625-2.731,18.131-8.616Zm.293-15.227a7.39,7.39,0,0,0,2.157-5.43,3.576,3.576,0,0,0-.986-2.189c-1.94-1.983-5.722-.91-7.662,1.16l4.313,4.3Zm10.837,6.5H60.271s2.167,3.251,2.167,11.921L59.187,34.6s2.168,9.754-3.251,11.921l-2.168-3.251s-.878.878-2.265,2.048c-2.373,2-6.232,4.855-9.656,5.538L39.68,47.6l-3.251,3.251L34.261,53.02,28.842,47.6l-2.168,3.251c-3.425-.683-7.283-3.533-9.656-5.538-1.387-1.17-2.265-2.048-2.265-2.048l-2.168,3.251C7.168,44.35,9.335,34.6,9.335,34.6L6.084,35.68c0-8.67,2.168-11.921,2.168-11.921H5c2.168-8.67,6.5-11.921,6.5-11.921L9.335,9.67A15,15,0,0,1,20.173,4.251L19.089,1A85.094,85.094,0,0,1,34.261,2.257,85.093,85.093,0,0,1,49.434,1L48.35,4.251A15,15,0,0,1,59.187,9.67L57.02,11.838S61.355,15.089,63.522,23.759Z" transform="translate(-5 -0.998)" fill="#ffa426"/>
      <path id="Path_125" data-name="Path 125" d="M55.449,60.779a2.184,2.184,0,0,1-1.528,3.728H42a2.367,2.367,0,0,0,2.167-2.167L47.82,45h1.767c3.035.033,4.075,2.493,4.292,5.278a4.278,4.278,0,0,1-.455,2.222l-3.056,6.1a1.084,1.084,0,0,0,.975,1.571h2.579A2.182,2.182,0,0,1,55.449,60.779Z" transform="translate(-1.901 2.687)" fill="#f7d2a3"/>
      <path id="Path_126" data-name="Path 126" d="M33.424,32.842a2.121,2.121,0,0,0,1.734-.91L37.325,28.9a2.286,2.286,0,0,0-1.734-3.641H31.256A2.286,2.286,0,0,0,29.522,28.9l2.168,3.034a2.121,2.121,0,0,0,1.734.91Zm18.088-5.408a7.4,7.4,0,0,1,.336,2.157,10.108,10.108,0,0,1-.293,2.222c-1.506,5.885-9.038,8.616-18.131,8.616S16.8,37.7,15.293,31.813A10.108,10.108,0,0,1,15,29.591a7.4,7.4,0,0,1,.336-2.157,8.682,8.682,0,0,1,1.951-3.381,6.551,6.551,0,0,0,1.658-3.392l.531-2.991C20,14.115,23.67,10.084,26.921,9c0,3.6.423,6.5,3.251,6.5V11.167s3.555,6.5,8.67,6.5V13.335a9.754,9.754,0,0,0,7.586,3.251s1.03.715,1.084,1.084l.39,2.991a6.551,6.551,0,0,0,1.658,3.392,8.682,8.682,0,0,1,1.951,3.381Z" transform="translate(-4.162 -0.328)" fill="#ffe4c2"/>
      <path id="Path_127" data-name="Path 127" d="M34.5,24a2.286,2.286,0,0,1,1.734,3.641L34.07,30.676a2.107,2.107,0,0,1-3.468,0l-2.167-3.034A2.286,2.286,0,0,1,30.169,24Z" transform="translate(-3.075 0.928)" fill="#414952"/>
      <path id="Path_128" data-name="Path 128" d="M23.089,64.507H11.168a2.168,2.168,0,1,1,0-4.335h2.579a1.084,1.084,0,0,0,.975-1.571l-3.056-6.1a4.278,4.278,0,0,1-.455-2.222c.217-2.785,1.257-5.245,4.292-5.278h1.767l3.652,17.34a2.367,2.367,0,0,0,2.167,2.168Z" transform="translate(-4.665 2.687)" fill="#f7d2a3"/>
      <path id="Path_129" data-name="Path 129" d="M37.6,44.2l-3.035,3.034L32.4,49.4l-5.2-5.2,3.034,18.207a1.9,1.9,0,0,1-.141.867A9.7,9.7,0,0,0,32.4,61.323a9.7,9.7,0,0,0,2.308,1.951,1.9,1.9,0,0,1-.141-.867Z" transform="translate(-3.141 2.62)" fill="#f7d2a3"/>
      <path id="Path_130" data-name="Path 130" d="M28.138,44.393l-.217-.217-2.168,3.251c-3.425-.683-7.283-3.533-9.656-5.538l-.1.119.683,3.251L20.335,62.6A2.367,2.367,0,0,0,22.5,64.768H29a2.034,2.034,0,0,0,2.027-1.3,1.9,1.9,0,0,0,.141-.867Z" transform="translate(-4.079 2.427)" fill="#ffe4c2"/>
      <path id="Path_131" data-name="Path 131" d="M49.075,41.89c-2.373,2-6.232,4.855-9.656,5.538l-2.167-3.251-.217.217L34,62.6a1.9,1.9,0,0,0,.141.867,2.034,2.034,0,0,0,2.027,1.3h6.5A2.367,2.367,0,0,0,44.838,62.6L48.49,45.26l.683-3.251Z" transform="translate(-2.572 2.427)" fill="#ffe4c2"/>
      <path id="Path_132" data-name="Path 132" d="M59.5,48.7v9a5.419,5.419,0,0,1-4.573,5.333A2.129,2.129,0,0,1,53,64.2h2.964a5.263,5.263,0,0,0,4.3-2.123,7.521,7.521,0,0,0,1.4-4.379v-9a1.951,1.951,0,0,1-2.167,0Z" transform="translate(-0.98 2.997)" fill="#ffb13b"/>
      <path id="Path_133" data-name="Path 133" d="M63.5,46.419C63.5,44.327,61.064,41,60.251,41S57,44.327,57,46.419c0,1.907,2.016,3.035,2.989,3.213-.676-.163-1.905-.857-1.905-1.994,0-1.307,1.626-3.387,2.168-3.387s2.167,2.08,2.167,3.387c0,1.137-1.229,1.832-1.905,1.994C61.487,49.453,63.5,48.326,63.5,46.419Z" transform="translate(-0.645 2.352)" fill="#ffbb4d"/>
      <path id="Path_134" data-name="Path 134" d="M55.063,60.779a2.182,2.182,0,0,0-1.528-.607H50.956A1.084,1.084,0,0,1,49.98,58.6l3.056-6.1a4.278,4.278,0,0,0,.455-2.222C53.275,47.493,52.234,45.033,49.2,45H47.433l-.268,1.269c2.1.6,2.89,2.723,3.075,5.094a4.277,4.277,0,0,1-.455,2.222l-3.056,6.1a1.084,1.084,0,0,0,.975,1.571h2.579a2.182,2.182,0,0,1,1.528.607,2.139,2.139,0,0,1,.639,1.56,2.195,2.195,0,0,1-.285,1.084h1.369a2.184,2.184,0,0,0,1.528-3.728Z" transform="translate(-1.515 2.687)" fill="#ffddb3"/>
      <path id="Path_135" data-name="Path 135" d="M33.424,38.706c-9.093,0-16.625-2.731-18.131-8.616-.043-.169-.063-.349-.1-.523A7.146,7.146,0,0,0,15,31.12a10.108,10.108,0,0,0,.293,2.222c1.506,5.885,9.038,8.616,18.131,8.616s16.625-2.731,18.131-8.616a10.108,10.108,0,0,0,.293-2.222,7.146,7.146,0,0,0-.2-1.553c-.034.174-.053.354-.1.523C50.048,35.975,42.516,38.706,33.424,38.706Z" transform="translate(-4.163 1.395)" fill="#e0911b"/>
      <path id="Path_136" data-name="Path 136" d="M11.807,61.863a2.182,2.182,0,0,1,1.528-.607h2.579a1.084,1.084,0,0,0,.975-1.571l-3.056-6.1a4.278,4.278,0,0,1-.455-2.222C13.6,48.633,14.606,46.23,17.5,46.1L17.269,45H15.5c-3.035.033-4.075,2.493-4.292,5.278a4.278,4.278,0,0,0,.455,2.222l3.056,6.1a1.084,1.084,0,0,1-.975,1.571H11.168a2.168,2.168,0,0,0,0,4.335h.285a2.195,2.195,0,0,1-.285-1.084,2.139,2.139,0,0,1,.639-1.561Z" transform="translate(-4.665 2.687)" fill="#ffddb3"/>
      <path id="Path_137" data-name="Path 137" d="M32.4,53.737,36.737,49.4l.867-5.2-3.035,3.034L32.4,49.4l-5.2-5.2.867,5.2Z" transform="translate(-3.141 2.62)" fill="#e6c293"/>
      <path id="Path_138" data-name="Path 138" d="M29,49.6l-.867-5.2-.217-.217-2.168,3.251c-3.425-.683-7.283-3.533-9.656-5.538l-.1.119.683,3.251.368,1.748c2.376,1.9,5.7,4.157,8.7,4.754Z" transform="translate(-4.079 2.427)" fill="#f7d2a3"/>
      <path id="Path_139" data-name="Path 139" d="M49,42.009l-.1-.119c-2.373,2-6.232,4.855-9.656,5.538l-2.168-3.251-.217.217L36,49.6l3.251,2.168c3-.6,6.327-2.856,8.7-4.754l.368-1.748Z" transform="translate(-2.404 2.427)" fill="#f7d2a3"/>
      <path id="Path_140" data-name="Path 140" d="M23.505,62.2l-2.72-12.913a35.82,35.82,0,0,1-3.815-2.679L20.254,62.2a2.367,2.367,0,0,0,2.167,2.167h3.251A2.367,2.367,0,0,1,23.505,62.2Z" transform="translate(-3.998 2.822)" fill="#ffebd1"/>
      <path id="Path_141" data-name="Path 141" d="M41.168,62.2A2.367,2.367,0,0,1,39,64.372h3.251A2.367,2.367,0,0,0,44.419,62.2L47.7,46.613a35.82,35.82,0,0,1-3.815,2.679Z" transform="translate(-2.153 2.822)" fill="#ffebd1"/>
      <path id="Path_142" data-name="Path 142" d="M19.934,45.26l-.121-.577A40.614,40.614,0,0,1,16.1,41.89l-.1.119.683,3.251.368,1.748a35.821,35.821,0,0,0,3.815,2.679Z" transform="translate(-4.079 2.427)" fill="#ffddb3"/>
      <path id="Path_143" data-name="Path 143" d="M48.279,41.89a40.615,40.615,0,0,1-3.715,2.794l-.121.577-.932,4.427a35.819,35.819,0,0,0,3.815-2.679l.368-1.748.683-3.251Z" transform="translate(-1.775 2.427)" fill="#ffddb3"/>
      <path id="Path_144" data-name="Path 144" d="M18.492,31.48a13.137,13.137,0,0,1-.241-2.3,9.5,9.5,0,0,1,.276-2.23,9.734,9.734,0,0,1,1.607-3.5A7.6,7.6,0,0,0,21.5,19.944l.433-3.094a13.289,13.289,0,0,1,3.912-7.425c-2.937,1.5-5.909,5.042-6.372,8.209l-.531,2.991a6.551,6.551,0,0,1-1.658,3.392A8.682,8.682,0,0,0,15.336,27.4,7.4,7.4,0,0,0,15,29.556a10.108,10.108,0,0,0,.293,2.222c1.506,5.885,9.038,8.616,18.131,8.616-7.488,0-13.691-2.825-14.932-8.913Z" transform="translate(-4.163 -0.292)" fill="#ffebd1"/>
      <path id="Path_145" data-name="Path 145" d="M50.088,26.858a8.682,8.682,0,0,0-1.951-3.381,6.551,6.551,0,0,1-1.658-3.392l-.39-2.991C46.035,16.724,45,16.009,45,16.009a11.442,11.442,0,0,1-1.626-.119,1,1,0,0,1,.222.418l.325,3.094a7.6,7.6,0,0,0,1.366,3.509,9.734,9.734,0,0,1,1.6,3.5,9.5,9.5,0,0,1,.276,2.227,13.137,13.137,0,0,1-.241,2.3C45.691,37.026,39.488,39.852,32,39.852c9.093,0,16.625-2.731,18.131-8.616a10.108,10.108,0,0,0,.293-2.222A7.4,7.4,0,0,0,50.088,26.858Z" transform="translate(-2.739 0.249)" fill="#ffebd1"/>
      <path id="Path_146" data-name="Path 146" d="M25.47,12.251a5.151,5.151,0,0,0,5.419,5.419V14.419s3.555,5.419,8.67,5.419V16.586a17.9,17.9,0,0,0,7.724,2.143l-.138-1.059c-.054-.368-1.084-1.084-1.084-1.084a9.754,9.754,0,0,1-7.586-3.251V17.67c-5.115,0-8.67-6.5-8.67-6.5V15.5c-2.829,0-3.251-2.9-3.251-6.5a12.871,12.871,0,0,0-7.163,7.5,13.321,13.321,0,0,1,6.079-4.249Z" transform="translate(-3.795 -0.328)" fill="#f7d2a3"/>
      <path id="Path_147" data-name="Path 147" d="M51.346,11.036a7.39,7.39,0,0,1-2.157,5.43l-2.178-2.157.011-.011C45.938,13.214,48.106,8.89,51.346,11.036Z" transform="translate(-1.504 -0.207)" fill="#e3a76f"/>
      <path id="Path_148" data-name="Path 148" d="M51.131,13.084a5.628,5.628,0,0,0,.217-2.048c-3.243-2.146-5.41,2.178-4.326,3.262l-.011.011.061.061a2.754,2.754,0,0,1,4.06-1.285Z" transform="translate(-1.504 -0.207)" fill="#c48958"/>
      <path id="Path_149" data-name="Path 149" d="M50.672,9.051a3.576,3.576,0,0,1,.986,2.189c-3.24-2.146-5.408,2.178-4.324,3.262l-.011.011-4.313-4.3C44.95,8.141,48.732,7.068,50.672,9.051Z" transform="translate(-1.817 -0.412)" fill="#ffe4c2"/>
      <path id="Path_150" data-name="Path 150" d="M21.679,10.211l-4.324,4.3-.011-.011c1.084-1.084-1.084-5.408-4.324-3.262a3.576,3.576,0,0,1,.986-2.189C15.957,7.068,19.739,8.141,21.679,10.211Z" transform="translate(-4.328 -0.412)" fill="#ffe4c2"/>
      <path id="Path_151" data-name="Path 151" d="M13.02,11.036c3.24-2.146,5.408,2.178,4.324,3.262l.011.011-2.168,2.157a7.4,7.4,0,0,1-2.167-5.43Z" transform="translate(-4.329 -0.207)" fill="#e3a76f"/>
      <path id="Path_152" data-name="Path 152" d="M17.3,14.369l.061-.061-.011-.011c1.084-1.084-1.084-5.408-4.324-3.262a5.691,5.691,0,0,0,.217,2.046A2.753,2.753,0,0,1,17.3,14.369Z" transform="translate(-4.33 -0.207)" fill="#c48958"/>
      <path id="Path_153" data-name="Path 153" d="M53.058,18.173c-.325-1.509-1.064-3.312-2.647-4.036A8.158,8.158,0,0,1,49,16.156c1.084,1.084,2.168,1.94,2.168,4.335a1.923,1.923,0,0,0,1.89-2.318Z" transform="translate(-1.315 0.102)" fill="#e0911b"/>
      <path id="Path_154" data-name="Path 154" d="M11,18.326a2.167,2.167,0,0,0,2.167,2.167h.011c0-2.4,1.084-3.251,2.167-4.335l-.011-.029a8.061,8.061,0,0,1-1.4-2.016A4.5,4.5,0,0,0,11,18.326Z" transform="translate(-4.498 0.1)" fill="#e0911b"/>
      <path id="Path_155" data-name="Path 155" d="M60.271,23.759h3.251c-2.167-8.67-6.5-11.921-6.5-11.921L59.187,9.67A15,15,0,0,0,48.35,4.251L49.434,1A85.094,85.094,0,0,0,34.261,2.257,85.093,85.093,0,0,0,19.089,1l1.084,3.251A15,15,0,0,0,9.335,9.67L11.5,11.838S7.168,15.089,5,23.759H8.251S6.084,27.01,6.084,35.68L9.335,34.6S7.168,44.35,12.586,46.518l1.691-2.536c-1.286-3.5-.325-8.618-.325-8.618L11.3,36.4c0-8.309,1.765-11.425,1.765-11.425h-2.65a33.241,33.241,0,0,1,1.316-4.6,2.143,2.143,0,0,1-.232-.957,4.5,4.5,0,0,1,2.8-4.154c.03-.044.062-.09.092-.132a7.153,7.153,0,0,1-.67-2.194c-.008-.063-.015-.126-.022-.189a5.032,5.032,0,0,1-.013-.929,3.576,3.576,0,0,1,.986-2.189,3.493,3.493,0,0,1,1.9-.975,11.163,11.163,0,0,1,6.2-2.384L21.9,3.168A59.189,59.189,0,0,1,34.261,4.373,59.189,59.189,0,0,1,46.624,3.168l-.882,3.116a11.149,11.149,0,0,1,6.2,2.384,3.468,3.468,0,0,1,1.917.975,3.576,3.576,0,0,1,.986,2.189,4.858,4.858,0,0,1-.01.93c-.005.063-.013.126-.022.189a7.089,7.089,0,0,1-.674,2.205l.127.182a5.682,5.682,0,0,1,2.48,3.941,1.879,1.879,0,0,1-.028.907A33.14,33.14,0,0,1,58.1,24.978H55.455S57.22,28.094,57.22,36.4l-2.649-1.039s.96,5.115-.325,8.618l1.69,2.536C61.355,44.35,59.187,34.6,59.187,34.6l3.251,1.084C62.439,27.01,60.271,23.759,60.271,23.759Z" transform="translate(-5 -0.998)" fill="#ffbb4d"/>
      <path id="Path_156" data-name="Path 156" d="M36.432,25.235a2.339,2.339,0,0,1-.2,2.406l-2.167,3.035a2.107,2.107,0,0,1-3.468,0l-2.167-3.035a2.339,2.339,0,0,1-.2-2.406A2.122,2.122,0,0,1,30.168,24H34.5a2.122,2.122,0,0,1,1.929,1.235Z" transform="translate(-3.074 0.928)" fill="#414952"/>
      <path id="Path_157" data-name="Path 157" d="M36.236,27.442l-2.167,3.034a2.107,2.107,0,0,1-3.468,0l-2.167-3.034a2.316,2.316,0,0,1-.405-1.067,3.638,3.638,0,0,0,.405,2.108l2.168,3.9a1.869,1.869,0,0,0,3.468,0l2.167-3.9a3.638,3.638,0,0,0,.405-2.108A2.316,2.316,0,0,1,36.236,27.442Z" transform="translate(-3.073 1.127)" fill="#d9ad75"/>
      <ellipse id="Ellipse_865" data-name="Ellipse 865" cx="0.448" cy="0.622" rx="0.448" ry="0.622" transform="translate(31.005 27.099) rotate(-45)" fill="#f6fafd"/>
      <path id="Path_158" data-name="Path 158" d="M36.393,25.084a2.314,2.314,0,0,1-.156.3l-2.167,3.034a2.107,2.107,0,0,1-3.468,0l-2.167-3.034a2.314,2.314,0,0,1-.156-.3c-.011.022-.028.039-.039.061a2.339,2.339,0,0,0,.2,2.406L30.6,30.585a2.107,2.107,0,0,0,3.468,0l2.167-3.034a2.339,2.339,0,0,0,.2-2.406C36.421,25.123,36.4,25.1,36.393,25.084Z" transform="translate(-3.074 1.019)" fill="#23272b"/>
      <path id="Path_159" data-name="Path 159" d="M33.419,32.609V31.022a1.059,1.059,0,0,0-.056-.281,2.02,2.02,0,0,1-2.059,0,1.059,1.059,0,0,0-.052.281v1.588l-2.769,1.842a1.084,1.084,0,0,0,1.2,1.8l2.65-1.765,2.65,1.767a1.084,1.084,0,0,0,1.2-1.8Z" transform="translate(-3.074 1.493)" fill="#1d2024"/>
      <path id="Path_160" data-name="Path 160" d="M40.915,20.454A1.494,1.494,0,0,0,39.843,20h-.025a2.854,2.854,0,0,0-1.91.919A2.818,2.818,0,0,0,37,22.843a1.467,1.467,0,0,0,.417,1.038,1.494,1.494,0,0,0,1.072.451h.028a2.835,2.835,0,0,0,1.894-.9l.015-.015a2.818,2.818,0,0,0,.908-1.92A1.467,1.467,0,0,0,40.915,20.454Z" transform="translate(-2.32 0.593)" fill="#333940"/>
      <path id="Path_161" data-name="Path 161" d="M24.517,20H24.49a1.467,1.467,0,0,0-1.038.417A1.494,1.494,0,0,0,23,21.489a2.818,2.818,0,0,0,.9,1.921l.015.015a2.835,2.835,0,0,0,1.9.909h.027a1.467,1.467,0,0,0,1.038-.417,1.494,1.494,0,0,0,.452-1.075A3.167,3.167,0,0,0,24.517,20Z" transform="translate(-3.492 0.593)" fill="#333940"/>
      <g id="Group_104525" data-name="Group 104525" transform="translate(35.016 1.555)">
        <ellipse id="Ellipse_866" data-name="Ellipse 866" cx="0.894" cy="1.244" rx="0.894" ry="1.244" transform="translate(1.687 1.264) rotate(-45)" fill="#f6fafd"/>
        <ellipse id="Ellipse_867" data-name="Ellipse 867" cx="0.894" cy="1.244" rx="0.894" ry="1.244" transform="translate(16.853 27.283) rotate(-45)" fill="#f6fafd"/>
        <ellipse id="Ellipse_868" data-name="Ellipse 868" cx="0.448" cy="0.622" rx="0.448" ry="0.622" transform="translate(0 1.93) rotate(-45)" fill="#f6fafd"/>
        <ellipse id="Ellipse_869" data-name="Ellipse 869" cx="0.448" cy="0.622" rx="0.448" ry="0.622" transform="translate(24.914 45.294) rotate(-45)" fill="#f6fafd"/>
        <ellipse id="Ellipse_870" data-name="Ellipse 870" cx="1.78" cy="2.477" rx="1.78" ry="2.477" transform="translate(14.274 22.686) rotate(-45)" fill="#f6fafd"/>
      </g>
    </g>
  </g>
</svg>
