<svg xmlns="http://www.w3.org/2000/svg" width="88" height="88" viewBox="0 0 88 88">
  <g id="Group_104560" data-name="Group 104560" transform="translate(-441 -83)">
    <rect id="Rectangle_14385" data-name="Rectangle 14385" width="88" height="88" rx="44" transform="translate(441 83)" fill="#e89384"/>
    <g id="godzilla" transform="translate(452.789 92.68)">
      <path id="Path_77" data-name="Path 77" d="M43.829,333.13a.906.906,0,0,0-1.462.474l-.98,3.966,4.362-.563A7.283,7.283,0,0,0,43.829,333.13Zm0,0" transform="translate(-36.236 -291.487)" fill="#f5e277"/>
      <path id="Path_78" data-name="Path 78" d="M45.112,344.728a11.543,11.543,0,0,1-2.919-.63l-.806,3.262,4.362-.563a9.129,9.129,0,0,0-.636-2.068Zm0,0" transform="translate(-36.237 -301.275)" fill="#f0bc63"/>
      <path id="Path_79" data-name="Path 79" d="M19.326,349.566c-2.48,2.407-7.752.527-9.681-.571a1.449,1.449,0,0,0-1.926,2.053c5,7.541,15.012,8.468,15.012,8.468Zm0,0" transform="translate(-6.552 -305.4)" fill="#00ad8d"/>
      <path id="Path_80" data-name="Path 80" d="M238.478,7.638a1.33,1.33,0,0,0-1.916,1.191v6l6.015-2.337s-1.511-3.592-4.1-4.849Zm0,0" transform="translate(-207.123 -6.568)" fill="#f5e277"/>
      <path id="Path_81" data-name="Path 81" d="M132.4,53.406a1.33,1.33,0,0,0-1.3,1.847l2.352,5.515,4.616-4.51s-2.8-2.711-5.673-2.852Zm0,0" transform="translate(-114.696 -46.758)" fill="#f5e277"/>
      <path id="Path_82" data-name="Path 82" d="M75.075,153.33a1.33,1.33,0,0,0,.391,2.222l5.562,2.236.075-6.452s-3.9.062-6.028,1.995Zm0,0" transform="translate(-65.346 -132.502)" fill="#f5e277"/>
      <g id="Group_104524" data-name="Group 104524" transform="translate(0.959 27.06)">
        <path id="Path_83" data-name="Path 83" d="M122.34,381.647a49.1,49.1,0,0,1-.209,8.164l-10.416-3.324s-1.859-2.775-2.689-12.855Zm0,0" transform="translate(-96.419 -354.194)" fill="#00dcc3"/>
        <path id="Path_84" data-name="Path 84" d="M295.465,381.647a49.129,49.129,0,0,0,.208,8.164l10.416-3.324s1.859-2.775,2.689-12.855Zm0,0" transform="translate(-259.56 -354.194)" fill="#00dcc3"/>
        <path id="Path_85" data-name="Path 85" d="M385.651,225.231a.965.965,0,0,0-.549-1.307l-1.374-.5.605-1.329a.965.965,0,0,0-.549-1.307l-1.374-.5.605-1.329a.965.965,0,0,0-.55-1.307,3.735,3.735,0,0,0-2.72.07l-10.891,4.582,3.954,9.4,10.891-4.582a3.735,3.735,0,0,0,1.952-1.9Zm0,0" transform="translate(-323.911 -217.437)" fill="#00dcc3"/>
        <path id="Path_86" data-name="Path 86" d="M7.8,225.231a.965.965,0,0,1,.549-1.307l1.374-.5L9.115,222.1a.965.965,0,0,1,.549-1.307l1.374-.5-.605-1.329a.965.965,0,0,1,.55-1.307,3.735,3.735,0,0,1,2.72.07l10.891,4.582-3.954,9.4L9.749,227.127a3.735,3.735,0,0,1-1.952-1.9Zm0,0" transform="translate(-7.71 -217.437)" fill="#00dcc3"/>
      </g>
      <path id="Path_87" data-name="Path 87" d="M73.792,239.815l3.954-9.4L68.9,226.7c-.009.091-.019.18-.028.272-.373,3.767-.444,7.433-.452,10.586Zm0,0" transform="translate(-59.904 -198.483)" fill="#00c4a2"/>
      <path id="Path_88" data-name="Path 88" d="M372.81,239.832l5.374-2.261c-.01-3.479-.109-7.182-.486-10.857l-8.842,3.72Zm0,0" transform="translate(-322.952 -198.501)" fill="#00c4a2"/>
      <path id="Path_89" data-name="Path 89" d="M307.946,380.236c.314-1.737.61-3.91.831-6.606l-13.313,8.015a33.013,33.013,0,0,0-.056,4.594,25.334,25.334,0,0,0,9.415-3.511,19.2,19.2,0,0,0,3.123-2.491Zm0,0" transform="translate(-258.599 -327.132)" fill="#00c4a2"/>
      <path id="Path_90" data-name="Path 90" d="M109.027,373.629c.222,2.7.517,4.869.831,6.606a19.156,19.156,0,0,0,3.123,2.491,25.333,25.333,0,0,0,9.414,3.511,32.935,32.935,0,0,0-.056-4.594Zm0,0" transform="translate(-95.459 -327.132)" fill="#00c4a2"/>
      <path id="Path_91" data-name="Path 91" d="M92.774,151.336a13.067,13.067,0,0,0-3.931.766c-.348,1.232-.637,2.5-.879,3.783l4.735,1.9Zm0,0" transform="translate(-77.018 -132.503)" fill="#f0bc63"/>
      <path id="Path_92" data-name="Path 92" d="M135.594,59.133l1.889,4.428,4.615-4.51a12.654,12.654,0,0,0-3.857-2.457l-.165.128a18.207,18.207,0,0,0-2.482,2.411Zm0,0" transform="translate(-118.72 -49.551)" fill="#f0bc63"/>
      <path id="Path_93" data-name="Path 93" d="M240.962,25.36Q240,25.286,239,25.285q-1.248,0-2.433.115v4.994l6.015-2.337a13.425,13.425,0,0,0-1.615-2.7Zm0,0" transform="translate(-207.123 -22.138)" fill="#f0bc63"/>
      <path id="Path_94" data-name="Path 94" d="M118.039,96.075c7.612,0,19.626-3.619,19.626-16.722s-.907-34.068-19.626-34.068S98.414,66.25,98.414,79.353,110.427,96.075,118.039,96.075Zm0,0" transform="translate(-86.167 -39.649)" fill="#00dcc3"/>
      <path id="Path_95" data-name="Path 95" d="M182.3,234.628a12.235,12.235,0,1,0-12.229,11.855A12.046,12.046,0,0,0,182.3,234.628Zm0,0" transform="translate(-138.201 -195.05)" fill="#f5e277"/>
      <path id="Path_96" data-name="Path 96" d="M310.8,162.3h-2.242a.933.933,0,1,0,0,1.867H310.8a.933.933,0,0,0,0-1.867Zm0,0" transform="translate(-269.339 -142.099)" fill="#ff889e"/>
      <path id="Path_97" data-name="Path 97" d="M174.772,162.3h-2.242a.933.933,0,0,0,0,1.867h2.242a.933.933,0,0,0,0-1.867Zm0,0" transform="translate(-150.243 -142.099)" fill="#ff889e"/>
      <path id="Path_98" data-name="Path 98" d="M111.46,480.254s-.268-3.324-3-3.324a3.241,3.241,0,0,0-3.151,3.324Zm0,0" transform="translate(-92.207 -417.577)" fill="#f5e277"/>
      <path id="Path_99" data-name="Path 99" d="M357.52,480.254s.268-3.324,3-3.324a3.241,3.241,0,0,1,3.151,3.324Zm0,0" transform="translate(-313.028 -417.577)" fill="#f5e277"/>
      <path id="Path_100" data-name="Path 100" d="M141.269,480.254s-.268-3.324-3-3.324a3.241,3.241,0,0,0-3.151,3.324Zm0,0" transform="translate(-118.306 -417.577)" fill="#f0bc63"/>
      <path id="Path_101" data-name="Path 101" d="M327.711,480.254s.268-3.324,3-3.324a3.241,3.241,0,0,1,3.151,3.324Zm0,0" transform="translate(-286.928 -417.577)" fill="#f0bc63"/>
      <path id="Path_102" data-name="Path 102" d="M171.077,480.254s-.268-3.324-3-3.324a3.241,3.241,0,0,0-3.151,3.324Zm0,0" transform="translate(-144.405 -417.577)" fill="#f5e277"/>
      <path id="Path_103" data-name="Path 103" d="M297.9,480.254s.269-3.324,3-3.324a3.241,3.241,0,0,1,3.151,3.324Zm0,0" transform="translate(-260.825 -417.577)" fill="#f5e277"/>
      <path id="Path_104" data-name="Path 104" d="M163.526,240.85a13,13,0,0,0,13.163-12.789,12.51,12.51,0,0,0-1.7-6.289.933.933,0,1,0-1.613.94,10.644,10.644,0,0,1,1.446,5.349,11.3,11.3,0,1,1-11.3-10.922,11.469,11.469,0,0,1,7.711,2.942.933.933,0,1,0,1.251-1.385,13.327,13.327,0,0,0-8.962-3.423,12.794,12.794,0,1,0,0,25.577Zm0,0" transform="translate(-131.651 -188.483)"/>
      <path id="Path_105" data-name="Path 105" d="M238.913,158.7a2.935,2.935,0,0,0,2.217-.989.933.933,0,1,0-1.405-1.229,1.114,1.114,0,0,1-1.622,0,.933.933,0,1,0-1.405,1.229A2.935,2.935,0,0,0,238.913,158.7Zm0,0" transform="translate(-207.039 -136.732)"/>
      <path id="Path_106" data-name="Path 106" d="M169.709,126.086l.7.143v1.259a.933.933,0,0,0,1.867,0v-.878l.33.067a.922.922,0,0,0,.188.019.934.934,0,0,0,.185-1.848l-1.445-.3h-.007l-1.448-.3a.933.933,0,1,0-.373,1.829Zm0,0" transform="translate(-147.935 -108.777)"/>
      <path id="Path_107" data-name="Path 107" d="M305.916,126.7a.912.912,0,0,0,.187-.019l.331-.068v.878a.934.934,0,0,0,1.867,0v-1.259l.7-.144a.933.933,0,1,0-.373-1.829l-1.448.3h-.007l-1.445.3a.934.934,0,0,0,.186,1.848Zm0,0" transform="translate(-267.029 -108.775)"/>
      <path id="Path_108" data-name="Path 108" d="M26.677,63.61a.961.961,0,0,0,.928-.832c.015-.134.317-2.94.322-5.718a26.247,26.247,0,0,0,7.9,0c.005,2.778.307,5.584.322,5.718a.946.946,0,0,0,.928.832H50.644a.933.933,0,0,0,.933-.933,3.965,3.965,0,0,0-2.738-4c.651-1.645,1.7-5.206,2.263-11.991a17.176,17.176,0,0,0,1.273-5.4l8.738-3.677a4.655,4.655,0,0,0,2.439-2.369,1.917,1.917,0,0,0-1.082-2.571l-.422-.153.186-.409a1.918,1.918,0,0,0-1.082-2.571l-.422-.153.186-.408A1.917,1.917,0,0,0,59.836,26.4a4.669,4.669,0,0,0-3.4.087l-4.484,1.886a44.942,44.942,0,0,0-2.368-10.949C46.978,10.446,42.452,6.312,36.1,5.09,35.569,4.007,34.075,1.351,31.767.23A2.262,2.262,0,0,0,28.51,2.261V4.943a17.254,17.254,0,0,0-6.535,2.3,9.032,9.032,0,0,0-4.219-1.528,2.263,2.263,0,0,0-2.2,3.146l1.369,3.208a23.966,23.966,0,0,0-2.755,5.36q-.122.325-.236.655a9.586,9.586,0,0,0-4.829,2.052,2.263,2.263,0,0,0,.669,3.779l2.485,1c-.186,1.142-.337,2.3-.458,3.463L7.318,26.492a4.669,4.669,0,0,0-3.4-.087,1.917,1.917,0,0,0-1.082,2.571l.186.409-.422.153a1.919,1.919,0,0,0-1.082,2.571l.186.409-.422.153A1.917,1.917,0,0,0,.2,35.241,4.659,4.659,0,0,0,2.64,37.61l8.738,3.677a18.482,18.482,0,0,0,.365,2.518,3.717,3.717,0,0,1-1.547.536,7.044,7.044,0,0,0-2-3.415,1.84,1.84,0,0,0-2.965.968L4.854,43.4a11.33,11.33,0,0,1-1.3-.619,2.4,2.4,0,0,0-3.165,3.38,17.528,17.528,0,0,0,3.656,3.97.934.934,0,0,0,1.168-1.456,15.658,15.658,0,0,1-3.269-3.546.519.519,0,0,1,.686-.725A15.2,15.2,0,0,0,5.144,45.5c2.207.746,4.919,1.255,7.106.171.123.359.258.713.4,1.058,0,.028.219,2.34.363,3.464.108.85.226,1.664.356,2.438a23.994,23.994,0,0,1-5.18-2,.933.933,0,0,0-.877,1.648,26.108,26.108,0,0,0,6.442,2.365,25.6,25.6,0,0,0,1.157,4.04,3.965,3.965,0,0,0-2.739,4,.933.933,0,0,0,.933.933ZM6.631,44l.4-1.615a4.75,4.75,0,0,1,1.2,1.934c-.419-.054-1.486-.29-1.595-.319Zm8.455,16.656a3.068,3.068,0,0,1,1.193-.37,1.722,1.722,0,0,1,.239.015,3.99,3.99,0,0,0-.55,1.441H14.181a1.933,1.933,0,0,1,.9-1.086Zm9.437-.178a2.311,2.311,0,0,1,.971,1.248l.006.017H21.6a2.327,2.327,0,0,1,2.1-1.457A1.484,1.484,0,0,1,24.523,60.479Zm-4.3-.176a4,4,0,0,0-.549,1.441H17.894a2.338,2.338,0,0,1,2.1-1.457,1.609,1.609,0,0,0,.232.016Zm5.833-3.582c.006.846-.02,1.716-.059,2.517l-.008-.006-.023-.018a3.5,3.5,0,0,0-2.283-.792,4.482,4.482,0,0,0-1.873.481l-.017-.009a3.481,3.481,0,0,0-1.92-.468A4.66,4.66,0,0,0,18.1,58.9a3.393,3.393,0,0,0-1.077-.408l-.18-.032a15.146,15.146,0,0,1-.778-2.208,42.475,42.475,0,0,1-1.133-5.784A16.524,16.524,0,0,0,18.7,53.764a22.447,22.447,0,0,0,7.312,2.947l.042.01Zm18.99-2.957a16.523,16.523,0,0,0,3.768-3.294,42.48,42.48,0,0,1-1.133,5.784,15.2,15.2,0,0,1-.777,2.208c-.008,0-.128.021-.18.032a3.4,3.4,0,0,0-1.077.408,4.657,4.657,0,0,0-1.773-.478,3.5,3.5,0,0,0-1.919.468l-.018.01a4,4,0,0,0-3.244-.23,3.348,3.348,0,0,0-.943.566c-.039-.8-.065-1.67-.059-2.517l.042-.009a22.449,22.449,0,0,0,7.313-2.947ZM38.41,61.387a1.848,1.848,0,0,1,1.639-1.1,2.136,2.136,0,0,1,.6.117,2.18,2.18,0,0,1,1.506,1.34h-3.9a3.571,3.571,0,0,1,.156-.356Zm5.668.356a3.981,3.981,0,0,0-.551-1.44c.006,0,.249-.015.262-.014a2.389,2.389,0,0,1,2,1.276c.025.057.046.117.067.178Zm5.5,0H47.786a3.989,3.989,0,0,0-.549-1.441h.015c.063-.007.128-.011.195-.013h.027a3.069,3.069,0,0,1,1.195.37,1.933,1.933,0,0,1,.9,1.086ZM57.16,28.213A2.816,2.816,0,0,1,59.2,28.16a.031.031,0,0,1,.018.042l-.605,1.33a.945.945,0,0,0,.532,1.264l1.374.5a.031.031,0,0,1,.017.042l-.605,1.33a.943.943,0,0,0,.532,1.264l1.374.5a.03.03,0,0,1,.018.042A2.8,2.8,0,0,1,60.39,35.89l-7.954,3.346c0-2.654-.052-5.722-.3-8.91ZM30.377,4.747V2.261a.4.4,0,0,1,.575-.351,7.688,7.688,0,0,1,2.84,2.867,24.33,24.33,0,0,0-3.415-.03Zm-12.14,5.64-.963-2.258a.4.4,0,0,1,.368-.549h.023a6.384,6.384,0,0,1,2.63.837c-.134.108-.265.221-.4.333a17.093,17.093,0,0,0-1.662,1.637Zm.469,2.386c.01-.013.022-.025.032-.038,3.791-5.161,10.5-6.916,16.61-5.892,5.943.994,10.046,4.7,12.487,11.239,2.41,6.458,2.734,14.554,2.734,21.621a13.962,13.962,0,0,1-1.216,6.369c-.009.017-.02.034-.028.052-2.692,6.161-9.128,8.23-12.724,8.915l-.015,0a24.392,24.392,0,0,1-9.42,0l-.015,0c-3.6-.684-10.028-2.752-12.722-8.91A15.824,15.824,0,0,1,13.185,39.7a80.594,80.594,0,0,1,1.431-17.163c0-.005,0-.011,0-.017a26.347,26.347,0,0,1,4.086-9.75ZM12.6,23.039l-2.127-.855a.4.4,0,0,1-.112-.664,6.908,6.908,0,0,1,2.94-1.4c-.025.088-.35,1.389-.491,1.95-.072.32-.143.642-.21.97ZM1.9,34.467a.031.031,0,0,1,.018-.042l1.374-.5a.942.942,0,0,0,.532-1.264l-.606-1.33a.031.031,0,0,1,.018-.042l1.374-.5a.944.944,0,0,0,.532-1.265L4.536,28.2a.031.031,0,0,1,.018-.042,2.805,2.805,0,0,1,2.041.052l5.024,2.114c-.248,3.187-.3,6.256-.3,8.909L3.364,35.89A2.8,2.8,0,0,1,1.9,34.467Zm0,0" transform="translate(-0.002 0)"/>
    </g>
  </g>
</svg>
