<svg xmlns="http://www.w3.org/2000/svg" width="97.422" height="98.416" viewBox="0 0 97.422 98.416">
  <g id="Group_104566" data-name="Group 104566" transform="translate(-1181.665 -75.499)">
    <rect id="Rectangle_14384" data-name="Rectangle 14384" width="87.296" height="88.437" rx="43.648" transform="translate(1279.088 163.277) rotate(173)" fill="#f5bb37"/>
    <g id="bird" transform="translate(1201.877 87.232)">
      <path id="Path_265" data-name="Path 265" d="M260.636,396.135a27.437,27.437,0,0,1-10.018-5.979l-4.782,5.4a16.467,16.467,0,0,0,5.422,6.245,6.791,6.791,0,0,0,8.957-1.078l1.261-1.424A1.967,1.967,0,0,0,260.636,396.135Zm0,0" transform="translate(-212.04 -336.52)" fill="#f0d87c"/>
      <path id="Path_266" data-name="Path 266" d="M161.463,418.509a2.6,2.6,0,0,1-2.236-1.266,32.31,32.31,0,0,1-3.221-9.391,2.6,2.6,0,0,1,5.128-.891,27.351,27.351,0,0,0,2.559,7.61,2.6,2.6,0,0,1-2.23,3.939Zm0,0" transform="translate(-134.526 -349.154)" fill="#c9a07d"/>
      <path id="Path_267" data-name="Path 267" d="M235.1,418.509a2.6,2.6,0,0,1-2.236-1.266,32.293,32.293,0,0,1-3.221-9.391,2.6,2.6,0,0,1,5.128-.891,27.353,27.353,0,0,0,2.559,7.61,2.6,2.6,0,0,1-2.23,3.939Zm0,0" transform="translate(-198.043 -349.154)" fill="#c9a07d"/>
      <path id="Path_268" data-name="Path 268" d="M295.489,318.016c4.4,0,9.355,1.233,9.793,3.838.578,3.438-4.646,6.728-9.042,6.728s-7.142-2.366-7.142-5.283S291.093,318.016,295.489,318.016Zm0,0" transform="translate(-249.354 -274.297)" fill="#f0d87c"/>
      <path id="Path_269" data-name="Path 269" d="M17.344,318.016c-4.4,0-9.355,1.233-9.792,3.838-.578,3.438,4.646,6.728,9.042,6.728s7.142-2.366,7.142-5.283-1.995-5.283-6.391-5.283Zm0,0" transform="translate(-6.475 -274.297)" fill="#f0d87c"/>
      <path id="Path_270" data-name="Path 270" d="M129.18,290.246c-.18,16.065-4.985,22.594-14.816,22.594s-14.636-6.529-14.816-22.594Zm0,0" transform="translate(-85.863 -250.345)" fill="#fce68d"/>
      <g id="Group_104542" data-name="Group 104542" transform="translate(20.785 50.167)">
        <path id="Path_271" data-name="Path 271" d="M153.486,368.25a1.032,1.032,0,0,1-.729-.3l-1.267-1.267a1.031,1.031,0,0,1,1.459-1.458l.537.538.538-.538a1.031,1.031,0,0,1,1.459,1.458l-1.267,1.267A1.031,1.031,0,0,1,153.486,368.25Zm0,0" transform="translate(-151.189 -364.922)" fill="#f0d87c"/>
        <path id="Path_272" data-name="Path 272" d="M174.48,403.813a1.033,1.033,0,0,1-.729-.3l-1.266-1.266a1.031,1.031,0,1,1,1.458-1.459l.538.538.538-.538a1.031,1.031,0,1,1,1.458,1.459l-1.266,1.266A1.032,1.032,0,0,1,174.48,403.813Zm0,0" transform="translate(-169.296 -395.595)" fill="#f0d87c"/>
        <path id="Path_273" data-name="Path 273" d="M195.472,368.25a1.03,1.03,0,0,1-.729-.3l-1.267-1.267a1.031,1.031,0,1,1,1.459-1.458l.537.538.538-.538a1.031,1.031,0,0,1,1.459,1.458l-1.267,1.267a1.031,1.031,0,0,1-.729.3Zm0,0" transform="translate(-187.402 -364.922)" fill="#f0d87c"/>
      </g>
      <path id="Path_274" data-name="Path 274" d="M64.823,56.874c0-14.265-12.1-23.569-27.019-23.569s-27.019,9.3-27.019,23.569S22.882,76.143,37.8,76.143,64.823,71.139,64.823,56.874Zm0,0" transform="translate(-9.302 -28.726)" fill="#fce68d"/>
      <path id="Path_275" data-name="Path 275" d="M50.126,97.455C7.216,98.9,12.4,71.073,22.827,59.684A22.2,22.2,0,0,0,10.785,79.627c0,14.265,12.1,19.269,27.019,19.269a47.749,47.749,0,0,0,12.322-1.441Zm0,0" transform="translate(-9.302 -51.479)" fill="#f0d87c"/>
      <path id="Path_276" data-name="Path 276" d="M32.7,187.485c0-2.4-2.447-4.352-5.465-4.352s-5.465,1.949-5.465,4.352,2.447,4.352,5.465,4.352S32.7,189.888,32.7,187.485Zm0,0" transform="translate(-18.78 -157.957)" fill="#eb8d9a"/>
      <path id="Path_277" data-name="Path 277" d="M248.171,187.485c0-2.4-2.447-4.352-5.465-4.352s-5.465,1.949-5.465,4.352,2.447,4.352,5.465,4.352S248.171,189.888,248.171,187.485Zm0,0" transform="translate(-204.627 -157.957)" fill="#eb8d9a"/>
      <path id="Path_278" data-name="Path 278" d="M138.845,164.7l-1.8,2.192a3.838,3.838,0,0,0,.877,5.661l1.519.982a2.352,2.352,0,0,0,2.557,0l1.518-.982a3.837,3.837,0,0,0,.878-5.661l-1.8-2.192a2.422,2.422,0,0,0-3.739,0Zm0,0" transform="translate(-117.446 -141.298)" fill="#c9a07d"/>
      <path id="Path_279" data-name="Path 279" d="M33.323,24.793a1.57,1.57,0,1,1,3.14,0,1.031,1.031,0,0,0,2.062,0,3.632,3.632,0,1,0-7.265,0,1.031,1.031,0,0,0,2.062,0Zm-23.251,0a1.57,1.57,0,1,1,3.14,0,1.031,1.031,0,0,0,2.062,0,3.632,3.632,0,1,0-7.264,0,1.031,1.031,0,0,0,2.062,0ZM56.943,47.386c-.433-2.573-3.732-3.921-7.248-4.44,4.551-3.451,6.855-8.42,6.855-14.8a23.021,23.021,0,0,0-8.281-17.923A30.111,30.111,0,0,0,30.392,3.6a6.744,6.744,0,0,1,1.775-1.716A1.031,1.031,0,0,0,31,.18,8.16,8.16,0,0,0,28.06,3.552,30.5,30.5,0,0,0,8.732,10.225,23.019,23.019,0,0,0,.451,28.148,19.482,19.482,0,0,0,2.7,37.675a1.031,1.031,0,1,0,1.805-1,17.452,17.452,0,0,1-1.995-8.53A20.721,20.721,0,0,1,10.059,11.8,28.563,28.563,0,0,1,28.5,5.61,28.564,28.564,0,0,1,46.942,11.8a20.721,20.721,0,0,1,7.546,16.345c0,6.3-2.5,11.05-7.426,14.108q-.456.282-.938.545l-.036.019a23.488,23.488,0,0,1-3.312,1.472,1.062,1.062,0,0,0-.142.05A42.911,42.911,0,0,1,28.5,46.385c-9.6,0-16.938-2.131-21.229-6.164a1.031,1.031,0,0,0-1.412,1.5,18.049,18.049,0,0,0,1.448,1.221c-3.517.519-6.817,1.867-7.25,4.441a5,5,0,0,0,1.32,4.086,12.159,12.159,0,0,0,8.739,3.844,10.227,10.227,0,0,0,4.705-1.038,13.647,13.647,0,0,0,6.34,7.657,27.618,27.618,0,0,0,2.654,6.685,3.633,3.633,0,0,0,6.235-3.732,12.187,12.187,0,0,1-.7-1.377,18.741,18.741,0,0,0,2.318-.229,24.587,24.587,0,0,0,2.266,5.338,3.632,3.632,0,0,0,6.729-1.48,7.774,7.774,0,0,0,1.949.37l.062,0a1.031,1.031,0,0,0,.06-2.061,5.733,5.733,0,0,1-2.759-.9,21.224,21.224,0,0,1-1.642-4.357,13.527,13.527,0,0,0,2.611-3.3,30.671,30.671,0,0,0,7.305,3.7.937.937,0,0,1,.611.657.915.915,0,0,1-.2.848L47.4,63.518a5.814,5.814,0,0,1-.845.781A1.031,1.031,0,1,0,47.8,65.946a7.841,7.841,0,0,0,1.146-1.06l1.261-1.424a3,3,0,0,0-1.273-4.821,28.535,28.535,0,0,1-7.056-3.622q.155-.362.3-.74a10.234,10.234,0,0,0,4.705,1.037,12.159,12.159,0,0,0,8.739-3.844,5,5,0,0,0,1.32-4.086ZM10.117,53.254A10.107,10.107,0,0,1,2.953,50.14a3.1,3.1,0,0,1-.861-2.413c.261-1.551,3.786-2.836,8.08-2.966a25.354,25.354,0,0,0,2.818,1.266,36.8,36.8,0,0,0,1.169,6.259,8.049,8.049,0,0,1-4.042.967ZM27.741,68.1a1.57,1.57,0,0,1-2.155-.541A22.621,22.621,0,0,1,23.591,62.9a16.693,16.693,0,0,0,3.527.587,16.038,16.038,0,0,0,1.165,2.464,1.573,1.573,0,0,1-.541,2.155Zm10.665-2.155a1.572,1.572,0,0,1-2.7,1.614,22.693,22.693,0,0,1-2.02-4.747,12.539,12.539,0,0,0,2.886-1.3,20.264,20.264,0,0,0,1.831,4.429Zm2.272-13.6a1.042,1.042,0,0,0-.037.112,18.98,18.98,0,0,1-.96,2.425c-.009.018-.018.035-.026.053a13.03,13.03,0,0,1-1.844,2.84c-2.154,2.484-5.2,3.691-9.311,3.691s-7.157-1.208-9.311-3.691a15.062,15.062,0,0,1-2.831-5.317,1.049,1.049,0,0,0-.036-.112,31.8,31.8,0,0,1-1.173-5.588c.186.055.372.11.561.162A48.384,48.384,0,0,0,28.5,48.448,47.318,47.318,0,0,0,41.85,46.761a31.863,31.863,0,0,1-1.172,5.583Zm13.371-2.2a10.1,10.1,0,0,1-7.164,3.114,8.053,8.053,0,0,1-4.042-.967,36.82,36.82,0,0,0,1.168-6.255,25.358,25.358,0,0,0,2.821-1.271c4.293.13,7.817,1.414,8.078,2.966a3.1,3.1,0,0,1-.861,2.413ZM19.911,32.121l1.519.982a3.39,3.39,0,0,0,3.677,0l1.518-.982a4.868,4.868,0,0,0,1.114-7.181l-1.8-2.192a3.453,3.453,0,0,0-5.331,0L18.8,24.94a4.868,4.868,0,0,0,1.113,7.181Zm.478-5.871,1.8-2.192a1.391,1.391,0,0,1,2.147,0l1.8,2.192A2.806,2.806,0,0,1,25.5,30.39l-1.518.982a1.323,1.323,0,0,1-1.436,0l-1.519-.982a2.806,2.806,0,0,1-.642-4.139Zm0,0" transform="translate(0.001 0)"/>
    </g>
  </g>
</svg>
