<svg xmlns="http://www.w3.org/2000/svg" width="87" height="89" viewBox="0 0 87 89">
  <g id="Group_104563" data-name="Group 104563" transform="translate(-812 -83)">
    <rect id="Rectangle_14388" data-name="Rectangle 14388" width="87" height="89" rx="43.5" transform="translate(812 83)" fill="#a7e6b1"/>
    <g id="Elephant" transform="translate(821.371 99.813)">
      <path id="Tail_7_" d="M105.368,99.519a.877.877,0,0,1-.856-.856c0-2.339-3.423-3.766-3.423-3.766a.775.775,0,0,1-.456-1.084.889.889,0,0,1,1.084-.456c.171.057,4.564,1.826,4.564,5.363A.976.976,0,0,1,105.368,99.519Z" transform="translate(-44.964 -51.011)"/>
      <g id="Body_13_" transform="translate(24.415 33.559)">
        <path id="Path_162" data-name="Path 162" d="M74.2,80.625,73.685,78,50.292,83.706l-.514,2.91-.057-.057c-2.739,2.282-3.537,17.516,0,17.117.456-.057.856-.057,1.2-.114a2.36,2.36,0,0,0,2.168-2.339c0-.456.057-.97.114-1.6a17.594,17.594,0,0,0,8.844,1.94,5.386,5.386,0,0,1-.342,2.111c-.456.571,3.823,1.483,4.564.571a14.875,14.875,0,0,0,1.2-3.823,32.186,32.186,0,0,0,5.477-2.168,16.249,16.249,0,0,0-.4,3.709c.342.913,3.423,0,3.423,0,3.309-5.021,4.622-16.717-1.769-21.339" transform="translate(-46.54 -78)" fill="#a9a69c"/>
        <path id="Path_163" data-name="Path 163" d="M58.5,91.838c8.216,0,15.462-1.94,19.285-6.733a9.155,9.155,0,0,0-2.967-3.48L74.3,79,50.911,84.706l-.514,2.91-.057-.057a6.635,6.635,0,0,0-1.541,3.2A39.76,39.76,0,0,0,58.5,91.838Z" transform="translate(-47.159 -78.429)" fill="#827e74"/>
        <path id="Path_164" data-name="Path 164" d="M78.546,88.932A11.891,11.891,0,0,0,74.324,81.8l-.114,2.111.685.97a11.738,11.738,0,0,1,1.94,4.507,19.544,19.544,0,0,1,.171,6.561c-.114.856-.285,1.655-.456,2.453a16.187,16.187,0,0,1-1.826,4.564,6.36,6.36,0,0,1-2.054.285,17.59,17.59,0,0,1,.342-2.682v-.114c.685-.342,1.312-.742,1.6-.856.4-.228.8-.628.685-1.084-.171-.456-.628-.856-1.141-.514l-.114.057-.114.057a5.264,5.264,0,0,0-.456.285c-.342.171-.685.4-1.027.571a6.514,6.514,0,0,0-.913.514,28.442,28.442,0,0,1-3.652,1.483,8.255,8.255,0,0,0-.285-3.823.869.869,0,0,0-1.6.685,7.514,7.514,0,0,1,.057,3.766,15.526,15.526,0,0,1-.4,1.883,11.586,11.586,0,0,1-.685,2.054A6.222,6.222,0,0,1,62,105.25c.057-.285.114-.628.171-1.084s.114-1.027.171-1.769c.057-1.2.114-2.739.171-4.907a.84.84,0,0,0-.856-.856.878.878,0,0,0-.856.856c-.057,1.712-.114,3.595-.171,5.078a16.739,16.739,0,0,1-7.075-1.6,20.756,20.756,0,0,1,.913-3.138.848.848,0,1,0-1.6-.571,24.688,24.688,0,0,0-.913,2.967,7.123,7.123,0,0,0-.285,1.826,7.275,7.275,0,0,0-.057,1.084,1.451,1.451,0,0,1-1.369,1.483,10.452,10.452,0,0,0-1.2.114c-.285,0-.571-.571-.685-.8a13.355,13.355,0,0,1-.742-4.45c-.114-4.222.856-9.3,2.054-10.327a.851.851,0,1,0-1.084-1.312l-.171.171c-2.51,2.51-3.252,12.838-1.655,16.6.685,1.6,1.6,1.883,2.225,1.883h.228c.456-.057.8-.057,1.141-.114a3.139,3.139,0,0,0,2.91-3.2v-.342a18.7,18.7,0,0,0,7.132,1.541h.057a5.018,5.018,0,0,1-.114.8,1,1,0,0,0,.342,1.369,7.248,7.248,0,0,0,3.537.856,2.468,2.468,0,0,0,2.111-.742,13.823,13.823,0,0,0,1.255-3.652,31.8,31.8,0,0,0,3.595-1.369,6.177,6.177,0,0,0-.057,2.51c.285.742,1.027.97,1.94.97a9.306,9.306,0,0,0,2.568-.456.887.887,0,0,0,.456-.342,23.086,23.086,0,0,0,2.453-15.405Z" transform="translate(-45.923 -79.632)"/>
      </g>
      <g id="Head_19_" transform="translate(0 0)">
        <g id="Ears">
          <g id="Group_104526" data-name="Group 104526" transform="translate(42.331 0.01)">
            <path id="Path_165" data-name="Path 165" d="M103.921,39.121c.514,10.555-.856,23.165-7.76,23.507S79.387,50.875,78.873,40.377s4.622-19.342,11.582-19.684,12.952,7.931,13.465,18.429Z" transform="translate(-77.974 -19.836)" fill="#a9a69c"/>
            <path id="Path_166" data-name="Path 166" d="M96.16,70.424c5.591-.285,7.588-8.615,7.817-17.4.285,10.156-1.312,21.4-7.817,21.738-6.9.342-16.774-11.754-17.288-22.252a26.683,26.683,0,0,1,.057-3.709C79.785,59.184,89.37,70.709,96.16,70.424Z" transform="translate(-77.973 -31.911)" fill="#827e74"/>
            <path id="Path_167" data-name="Path 167" d="M103.921,46.767c-.514-10.555-6.561-18.828-13.465-18.486-5.706.285-10.213,6.276-11.354,14.264a14.713,14.713,0,0,1-.228-2.225c-.514-10.441,4.679-19.285,11.582-19.627s12.952,7.931,13.465,18.486a67.336,67.336,0,0,1,0,7.588Z" transform="translate(-77.975 -19.836)" fill="#c0beb4"/>
            <path id="Path_168" data-name="Path 168" d="M95.226,62.9c-3.537,0-7.76-2.739-11.411-7.36C79.992,50.752,77.6,44.875,77.368,39.8a25.467,25.467,0,0,1,3.138-14.15c2.339-3.994,5.649-6.276,9.3-6.447h.456c7.189,0,13.408,8.5,13.922,19.285a57.671,57.671,0,0,1-1.141,15.862c-1.369,5.534-3.88,8.387-7.474,8.558ZM90.205,20.912h-.4c-3.024.114-5.82,2.111-7.874,5.591a24.094,24.094,0,0,0-2.91,13.18c.285,4.736,2.568,10.27,6.1,14.777,3.423,4.279,7.36,6.9,10.327,6.733,2.739-.114,4.679-2.568,5.877-7.3a56.055,56.055,0,0,0,1.084-15.348C101.959,28.671,96.481,20.912,90.205,20.912Z" transform="translate(-77.324 -19.2)"/>
          </g>
          <g id="Group_104527" data-name="Group 104527">
            <path id="Path_169" data-name="Path 169" d="M4.727,39.119c-.514,10.555.856,23.222,7.76,23.564S29.261,50.929,29.774,40.431,25.1,21.089,18.192,20.69,5.24,28.62,4.727,39.119Z" transform="translate(-3.775 -19.824)" fill="#a9a69c"/>
            <path id="Path_170" data-name="Path 170" d="M12.493,70.424C6.9,70.139,4.9,61.752,4.677,53.022c-.285,10.1,1.312,21.4,7.817,21.738,6.9.342,16.774-11.754,17.288-22.252a26.687,26.687,0,0,0-.057-3.709C28.868,59.184,19.283,70.709,12.493,70.424Z" transform="translate(-3.782 -31.902)" fill="#827e74"/>
            <path id="Path_171" data-name="Path 171" d="M4.736,46.678C5.249,36.123,11.3,27.85,18.2,28.192c5.706.285,10.213,6.276,11.354,14.264a14.714,14.714,0,0,0,.228-2.225C30.3,29.676,25.1,20.889,18.2,20.49S5.249,28.535,4.736,39.033c-.114,2.51-.114,5.135,0,7.645Z" transform="translate(-3.784 -19.738)" fill="#c0beb4"/>
            <path id="Path_172" data-name="Path 172" d="M12.129,62.9h-.342C3,62.441,2.886,45.667,3.228,38.477,3.8,27.466,10.246,18.85,17.606,19.193c3.652.171,6.961,2.453,9.3,6.447a25.961,25.961,0,0,1,3.138,14.15c-.228,5.078-2.682,10.955-6.447,15.69C19.888,60.159,15.666,62.9,12.129,62.9ZM4.94,38.535C4.426,49.318,5.967,60.9,11.9,61.186c2.967.114,6.961-2.453,10.327-6.733,3.537-4.507,5.82-10.042,6.048-14.72a23.977,23.977,0,0,0-2.91-13.18c-2.054-3.48-4.85-5.477-7.874-5.591h-.4C10.873,20.9,5.453,28.664,4.94,38.535Z" transform="translate(-3.132 -19.183)"/>
          </g>
        </g>
        <g id="Head_8_" transform="translate(12.077 0.466)">
          <path id="Path_173" data-name="Path 173" d="M48.7,23C29.411,23,27.3,40.744,27.3,48.39c0,13.18,13.351,15.12,21.4,15.12s21.4-1.94,21.4-15.12C70.092,40.8,67.981,23,48.7,23Z" transform="translate(-25.588 -21.288)" fill="#a9a69c"/>
          <path id="Path_174" data-name="Path 174" d="M48.052,21.5c-.628,0-1.255,0-1.826.057s-1.084.057-1.6.114a23.694,23.694,0,0,0-3.709.742C29,25.779,25.8,37.818,25.8,47.746c0-.571,0-1.141.057-1.712a15.892,15.892,0,0,0,.342,2.453c1.084-8.444,5.021-17,14.777-19.741A23.694,23.694,0,0,1,44.686,28a14.026,14.026,0,0,1,1.6-.114c.571-.057,1.2-.057,1.826-.057s1.255,0,1.826.057,1.084.057,1.6.114a23.694,23.694,0,0,1,3.709.742C65,31.485,68.934,40.043,70.018,48.487a16.937,16.937,0,0,0,.342-2.453c0,.571.057,1.141.057,1.712,0-9.928-3.2-21.967-15.12-25.333a23.694,23.694,0,0,0-3.709-.742,14.026,14.026,0,0,0-1.6-.114c-.742,0-1.312-.057-1.94-.057" transform="translate(-24.944 -20.644)" fill="#c0beb4"/>
          <path id="Path_175" data-name="Path 175" d="M70.3,67.5a16.561,16.561,0,0,1-.171,2.453l-.171-1.712C68.078,77.2,59.007,80.623,48.052,80.623S28.025,77.2,26.142,68.242l-.171,1.712A17.133,17.133,0,0,1,25.8,67.5c0,11.639,9.985,15.976,22.252,15.976S70.3,79.2,70.3,67.5" transform="translate(-24.944 -40.398)" fill="#827e74"/>
          <path id="Path_176" data-name="Path 176" d="M47.408,63.933C32.516,63.933,24.3,57.942,24.3,47.1c0-8.159,2.225-27.1,23.108-27.1S70.515,38.943,70.515,47.1C70.515,58,62.3,63.933,47.408,63.933Zm0-42.221c-19.285,0-21.4,17.744-21.4,25.39,0,13.18,13.351,15.12,21.4,15.12s21.4-1.94,21.4-15.12C68.8,39.513,66.693,21.712,47.408,21.712Z" transform="translate(-24.3 -20)"/>
        </g>
        <g id="Eyes_11_" transform="translate(24.344 27.283)">
          <ellipse id="Ellipse_871" data-name="Ellipse 871" cx="1.712" cy="1.712" rx="1.712" ry="1.712" transform="translate(18.201)"/>
          <ellipse id="Ellipse_872" data-name="Ellipse 872" cx="1.712" cy="1.712" rx="1.712" ry="1.712"/>
        </g>
        <g id="Tusks" transform="translate(24.09 35.998)">
          <g id="Group_104528" data-name="Group 104528" transform="translate(12.642 0.002)">
            <path id="Path_177" data-name="Path 177" d="M75.7,85.716l1.084,6.733c.285,1.712-2.339,2.8-3.366,1.426l-4.108-5.42C67.71,84.632,74.043,81.893,75.7,85.716Z" transform="translate(-68.173 -82.965)" fill="#ccc"/>
            <path id="Path_178" data-name="Path 178" d="M72.7,89.538c-.228-.514-1.483-3.823-1.312-4.222.456-.913,3.652-.4,4.564,0,.342.171.057,2.282.285,2.739l.628,3.709c.171.913-1.312,1.541-1.883.8Z" transform="translate(-69.17 -83.364)" fill="#f2f2f2"/>
            <path id="Path_179" data-name="Path 179" d="M74.067,94.615a2.513,2.513,0,0,1-2-.97l-4.108-5.42A.3.3,0,0,1,67.848,88a3.99,3.99,0,0,1,2.4-5.306,4.031,4.031,0,0,1,5.534,1.94c0,.057.057.171.057.228l1.084,6.733a2.672,2.672,0,0,1-1.712,2.8A2.555,2.555,0,0,1,74.067,94.615Zm-4.679-7.3,4.051,5.363a1.051,1.051,0,0,0,1.141.171c.342-.171.742-.514.685-.913l-1.084-6.618a2.421,2.421,0,0,0-3.252-.97,2.351,2.351,0,0,0-1.541,2.967Z" transform="translate(-67.512 -82.278)"/>
          </g>
          <g id="Group_104529" data-name="Group 104529">
            <path id="Path_180" data-name="Path 180" d="M47.968,85.716l-1.084,6.733c-.285,1.712,2.339,2.8,3.366,1.426l4.108-5.42C55.956,84.632,49.622,81.893,47.968,85.716Z" transform="translate(-46.002 -82.963)" fill="#ccc"/>
            <path id="Path_181" data-name="Path 181" d="M52.6,89.538c.228-.514,1.483-3.823,1.312-4.222-.456-.913-3.652-.4-4.564,0-.342.171-.057,2.282-.285,2.739l-.571,3.709c-.171.913,1.312,1.541,1.883.8Z" transform="translate(-46.695 -83.362)" fill="#f2f2f2"/>
            <path id="Path_182" data-name="Path 182" d="M48.29,94.613a2.98,2.98,0,0,1-1.2-.228,2.672,2.672,0,0,1-1.712-2.8l1.084-6.733V84.8c0-.057.057-.171.057-.228,1.027-2.339,3.537-2.739,5.534-1.883a4.028,4.028,0,0,1,2.4,5.363c0,.057-.057.114-.114.171l-4.108,5.42A2.192,2.192,0,0,1,48.29,94.613Zm-.114-9.357-1.084,6.618a.925.925,0,0,0,.685.913.882.882,0,0,0,1.141-.171l4.051-5.363a2.4,2.4,0,0,0-1.541-3.024c-.913-.285-2.568-.513-3.252,1.027Z" transform="translate(-45.354 -82.275)"/>
          </g>
        </g>
        <g id="Trunk" transform="translate(28.852 34.243)">
          <path id="Path_183" data-name="Path 183" d="M66.141,80.7V98.159a3.068,3.068,0,0,1-3.081,3.081H58.381A3.068,3.068,0,0,1,55.3,98.159V80.7" transform="translate(-54.387 -79.844)" fill="#a9a69c"/>
          <g id="Group_104530" data-name="Group 104530" transform="translate(3.195 3.994)">
            <path id="Path_184" data-name="Path 184" d="M64.72,87.912H60.156a.856.856,0,1,1,0-1.712H64.72a.856.856,0,1,1,0,1.712Z" transform="translate(-59.3 -86.2)" fill="#c0beb4"/>
            <path id="Path_185" data-name="Path 185" d="M64.72,94.912H60.156a.856.856,0,1,1,0-1.712H64.72a.856.856,0,1,1,0,1.712Z" transform="translate(-59.3 -89.206)" fill="#c0beb4"/>
            <path id="Path_186" data-name="Path 186" d="M64.72,101.912H60.156a.856.856,0,1,1,0-1.712H64.72a.856.856,0,1,1,0,1.712Z" transform="translate(-59.3 -92.212)" fill="#c0beb4"/>
            <path id="Path_187" data-name="Path 187" d="M64.72,108.912H60.156a.856.856,0,1,1,0-1.712H64.72a.856.856,0,1,1,0,1.712Z" transform="translate(-59.3 -95.218)" fill="#c0beb4"/>
          </g>
          <path id="Path_188" data-name="Path 188" d="M62.315,101.452H57.637A3.945,3.945,0,0,1,53.7,97.515V80.056a.856.856,0,0,1,1.712,0V97.515a2.228,2.228,0,0,0,2.225,2.225h4.679a2.228,2.228,0,0,0,2.225-2.225V80.056a.856.856,0,0,1,1.712,0V97.515A3.873,3.873,0,0,1,62.315,101.452Z" transform="translate(-53.7 -79.2)"/>
        </g>
      </g>
    </g>
  </g>
</svg>
