<svg xmlns="http://www.w3.org/2000/svg" width="88" height="88" viewBox="0 0 88 88">
  <g id="Group_104561" data-name="Group 104561" transform="translate(-563 -83)">
    <rect id="Rectangle_14386" data-name="Rectangle 14386" width="88" height="88" rx="44" transform="translate(563 83)" fill="#97b0d3"/>
    <g id="dragon" transform="translate(570.744 91.108)">
      <path id="Path_109" data-name="Path 109" d="M222.609,43.37H207.6s2.362-16.714,7.506-16.714S222.609,43.37,222.609,43.37Z" transform="translate(-178.146 -25.592)" fill="#e8899e"/>
      <path id="Path_110" data-name="Path 110" d="M144.242,64.3l-14.107,5.135s-3.5-16.514,1.337-18.273S144.242,64.3,144.242,64.3Z" transform="translate(-110.624 -46.5)" fill="#e26e7e"/>
      <path id="Path_111" data-name="Path 111" d="M54.858,175.258v15.013s-16.714-2.362-16.714-7.506S54.858,175.258,54.858,175.258Z" transform="translate(-32.733 -153.113)" fill="#e8899e"/>
      <path id="Path_112" data-name="Path 112" d="M36.344,262.75v15.013S19.63,275.4,19.63,270.257,36.344,262.75,36.344,262.75Z" transform="translate(-16.845 -228.193)" fill="#e26e7e"/>
      <path id="Path_113" data-name="Path 113" d="M24.214,352.235v15.013S7.5,364.886,7.5,359.741,24.214,352.235,24.214,352.235Z" transform="translate(-6.436 -304.984)" fill="#e8899e"/>
      <path id="Path_114" data-name="Path 114" d="M115.017,120.651l5.857,26.712a8.275,8.275,0,0,1-8.083,10.047H87.348a4.944,4.944,0,0,1-4.946-4.934c-.031-14.992,1.12-49.278,22.372-49.278Z" transform="translate(-70.712 -91.276)" fill="#5ec783"/>
      <path id="Path_115" data-name="Path 115" d="M221.585,287.292l-4.611-21.033c-19.625,2.624-17.106,23.736-17.106,31.08H213.5A8.275,8.275,0,0,0,221.585,287.292Z" transform="translate(-171.423 -231.204)" fill="#f7ef87"/>
      <path id="Path_116" data-name="Path 116" d="M303.622,91.218c3.13-1.632,8.643-5.5,7.737-14.142a2.431,2.431,0,0,0-4.346-1.211,12.88,12.88,0,0,1-9.467,5.431,1.958,1.958,0,0,0-1.681,2.215,10.586,10.586,0,0,0,4.867,7.583A2.886,2.886,0,0,0,303.622,91.218Z" transform="translate(-253.877 -67.002)" fill="#f6e3a3"/>
      <path id="Path_117" data-name="Path 117" d="M156.959,114.1l-1.783-3.787a12.387,12.387,0,0,0-11.207-7.111h-6.831a16.967,16.967,0,0,0-16.692,13.923,20.013,20.013,0,0,0,19.688,23.6h19.6a14.907,14.907,0,0,0,14.907-14.907v-2.427a7.7,7.7,0,0,0-7.7-7.7h-7.475A2.772,2.772,0,0,1,156.959,114.1Z" transform="translate(-103.076 -91.276)" fill="#89d47f"/>
      <path id="Path_118" data-name="Path 118" d="M133.9,105.412a16.969,16.969,0,0,0-13.453,13.609,20.013,20.013,0,0,0,19.688,23.6h9.4C130.049,139.325,126.337,115.317,133.9,105.412Z" transform="translate(-103.076 -93.175)" fill="#5ec783"/>
      <ellipse id="Ellipse_863" data-name="Ellipse 863" cx="4.369" cy="3.48" rx="4.369" ry="3.48" transform="translate(24.902 26.276)" fill="#fff"/>
      <ellipse id="Ellipse_864" data-name="Ellipse 864" cx="4.369" cy="3.48" rx="4.369" ry="3.48" transform="translate(44.913 26.276)" fill="#fff"/>
      <path id="Path_119" data-name="Path 119" d="M372.171,274.075c0-2.209-2.287-2.416-5.108-2.416s-5.108.208-5.108,2.416,2.287,4,5.108,4S372.171,276.284,372.171,274.075Z" transform="translate(-310.608 -235.838)" fill="#4e5660"/>
      <path id="Path_120" data-name="Path 120" d="M199.847,421.481h21.946a8.22,8.22,0,0,0-.017-2.066H199.92C199.882,420.118,199.859,420.809,199.847,421.481Z" transform="translate(-171.496 -362.633)" fill="#efd176"/>
      <path id="Path_121" data-name="Path 121" d="M89.49,91.218c-3.13-1.632-8.643-5.5-7.737-14.142A2.431,2.431,0,0,1,86.1,75.865,12.88,12.88,0,0,0,95.565,81.3a1.958,1.958,0,0,1,1.681,2.215,10.586,10.586,0,0,1-4.867,7.583,2.886,2.886,0,0,1-2.889.124Z" transform="translate(-70.07 -67.002)" fill="#f6e3a3"/>
      <path id="Path_122" data-name="Path 122" d="M60.423,54.353a12.282,12.282,0,0,0-3.967-.441,12.282,12.282,0,0,0-3.967.441,3.033,3.033,0,0,0-2.2,3.039c0,2.792,2.769,5.063,6.172,5.063s6.172-2.271,6.172-5.063a3.032,3.032,0,0,0-2.2-3.039Zm-3.967,5.975c-2.192,0-4.044-1.344-4.044-2.935,0-.792.29-1.353,4.044-1.353S60.5,56.6,60.5,57.392C60.5,58.983,58.647,60.327,56.455,60.327ZM63.866,42.5H56.392a1.715,1.715,0,0,1-1.546-.981l-.192-.408c3.086-3.123,4.393-7.154,3.886-12a3.495,3.495,0,0,0-6.248-1.748,11.808,11.808,0,0,1-5.218,4.16,13.518,13.518,0,0,0-2.826-1.087c-1.894-7.593-4.282-11.289-7.292-11.289-1.859,0-3.519,1.476-4.935,4.388a33.288,33.288,0,0,0-2.034,5.669c-3.826-5.23-6.944-7.323-9.5-6.392-1.66.6-2.671,2.324-3.067,5.231q-.277-.331-.544-.681a3.495,3.495,0,0,0-6.248,1.748,18.81,18.81,0,0,0-.1,2.078,1.064,1.064,0,0,0,1.064,1.057h.007a1.064,1.064,0,0,0,1.057-1.071,16.7,16.7,0,0,1,.093-1.842,1.324,1.324,0,0,1,.98-1.157,1.345,1.345,0,0,1,1.463.483,14.021,14.021,0,0,0,10.178,5.839.893.893,0,0,1,.76,1.01,9.464,9.464,0,0,1-4.385,6.836,1.83,1.83,0,0,1-1.825.077,12.99,12.99,0,0,1-6.4-6.617,1.064,1.064,0,1,0-1.976.79,13.69,13.69,0,0,0,3.543,5.056c-7.121,1.849-10.729,4.25-10.729,7.15,0,2.247,2.071,4.144,6.307,5.761-6,1.785-8.933,3.971-8.933,6.651,0,2.391,2.342,4.387,7.136,6.067C2.906,69.065,0,71.244,0,73.913c0,2.924,3.492,5.261,10.669,7.133a6.02,6.02,0,0,0,5.967,5.307H42.078a9.345,9.345,0,0,0,2.967-.479,1.064,1.064,0,0,0-.674-2.018,7.22,7.22,0,0,1-2.293.369H29.495c-.083-4.038-.409-9.976,1.064-15.574a21.139,21.139,0,0,0,6.5,1.017H47.85l1.272,5.8a7.209,7.209,0,0,1-1.228,5.808,1.064,1.064,0,1,0,1.715,1.259A9.337,9.337,0,0,0,51.2,75.014l-1.172-5.346h6.634A15.989,15.989,0,0,0,72.633,53.7V51.271A8.777,8.777,0,0,0,63.866,42.5ZM53.981,28.666a1.346,1.346,0,0,1,1.463-.483,1.324,1.324,0,0,1,.98,1.157,12.248,12.248,0,0,1-2.747,9.7A14.936,14.936,0,0,0,49.2,32.9a14.642,14.642,0,0,0,4.785-4.229ZM36.956,21.283c.646,0,2.832.663,4.995,8.774-.35-.028-.7-.043-1.058-.043H34.062a18.04,18.04,0,0,0-2.123.128c2.169-8.189,4.367-8.859,5.017-8.859ZM25.214,32.337a11.836,11.836,0,0,1-5.833-2.346c.182-3.97,1.215-4.947,1.831-5.172.582-.212,2.766-.347,7.352,6.055A17.992,17.992,0,0,0,25.214,32.337ZM10.625,78.832c-7.858-2.145-8.5-4.289-8.5-4.919s.663-2.834,8.793-5c-.249,4-.291,7.483-.3,9.919Zm.527-13.04c-4.6-1.4-7.3-3.077-7.3-4.574,0-.638.648-2.789,8.55-4.934C11.81,59.514,11.416,62.75,11.153,65.792ZM6.475,48.806c0-1,1.257-2.136,3.54-3.187A35.982,35.982,0,0,1,16.059,43.6a53.211,53.211,0,0,0-3.024,9.544C8.905,51.8,6.475,50.209,6.475,48.806ZM70.505,53.7A13.859,13.859,0,0,1,56.662,67.541h-19.6A18.829,18.829,0,0,1,23.88,62.209,1.064,1.064,0,1,0,22.4,63.737,21.005,21.005,0,0,0,28.56,67.89c-1.568,5.77-1.292,11.642-1.193,16.336H16.636a3.887,3.887,0,0,1-3.881-3.872c-.023-11.307.723-25.975,5.484-36.415a4.633,4.633,0,0,0,2.519.824,3.949,3.949,0,0,0,2.124-.617,11.7,11.7,0,0,0,5.348-8.331,2.993,2.993,0,0,0-.625-2.3,15.905,15.905,0,0,1,6.459-1.373h6.831a11.369,11.369,0,0,1,10.244,6.5L52.4,41.327c.052.113-.192-.408.519,1.1a3.852,3.852,0,0,0,3.471,2.2h7.475a6.647,6.647,0,0,1,6.639,6.639V53.7ZM31.818,42.725a1.064,1.064,0,0,0-1.064,1.064v1.759a1.064,1.064,0,0,0,2.128,0V43.789A1.064,1.064,0,0,0,31.818,42.725Zm1.906-2.2-3.1-.546a1.064,1.064,0,1,0-.37,2.1l3.1.546a1.064,1.064,0,0,0,.37-2.1Zm13.012,2.2a1.064,1.064,0,0,0-1.064,1.064v1.759a1.064,1.064,0,0,0,2.128,0V43.789A1.064,1.064,0,0,0,46.736,42.725Zm1.19-2.746-3.1.546a1.064,1.064,0,0,0,.184,2.112,1.078,1.078,0,0,0,.186-.016l3.1-.546a1.064,1.064,0,0,0-.37-2.1Z" transform="translate(0 -19.155)"/>
    </g>
  </g>
</svg>
